<?xml version="1.0" encoding="utf-8"?>
<!-- Generator: Adobe Illustrator 23.0.6, SVG Export Plug-In . SVG Version: 6.00 Build 0)  -->
<svg version="1.1" id="Слой_1" xmlns="http://www.w3.org/2000/svg" xmlns:xlink="http://www.w3.org/1999/xlink" x="0px" y="0px"
	 viewBox="0 0 1311 1332.2" style="enable-background:new 0 0 1311 1332.2;" xml:space="preserve">
<style type="text/css">
	.st0{fill-rule:evenodd;clip-rule:evenodd;fill:#E1E1E1;}
	.st1{fill:none;stroke:#000000;stroke-width:1.1339;stroke-linecap:round;stroke-linejoin:round;stroke-miterlimit:10;}
	.st2{fill:none;stroke:#7BB6DC;stroke-width:0.4252;stroke-linecap:square;stroke-linejoin:bevel;stroke-miterlimit:10;}
	.st3{fill:none;stroke:#7BB6DC;stroke-width:0.8504;stroke-linecap:square;stroke-linejoin:bevel;stroke-miterlimit:10;}
	.st4{fill:none;stroke:#7BB6DC;stroke-width:1.4173;stroke-linecap:square;stroke-linejoin:bevel;stroke-miterlimit:10;}
	.st5{fill:none;stroke:#7BB6DC;stroke-width:1.9843;stroke-linecap:square;stroke-linejoin:bevel;stroke-miterlimit:10;}
	.st6{fill:#8BB0C9;}
</style>
<polyline class="st0" points="1141,46.7 1139.6,129.5 1138.2,210.6 1136.8,290.1 1135.4,368 1134.1,444.4 "/>
<polyline class="st0" points="1134.1,444.4 1135.4,368 1136.8,290.1 1138.2,210.6 1139.6,129.5 1141,46.7 "/>
<path class="st1" d="M898.7,981.8"/>
<path class="st1" d="M225.8,377.9"/>
<path class="st1" d="M1265,0.1"/>
<path class="st1" d="M188.7,1124.3"/>
<polyline class="st1" points="878.2,1015.6 880.7,1007.3 880.9,1006.5 880.9,1005.6 880.7,1004.2 880.4,1003.4 879.9,1002.8 
	878.3,1000.8 877.9,1000.2 877.6,999.6 877.5,998.9 877.3,998.1 877.2,997.3 877.2,996.4 877.5,993.9 878,992.3 880.9,985.4 
	883.4,981.7 884.3,980.6 885.1,979.3 886.3,976.8 886.8,974 "/>
<polyline class="st1" points="1046.6,440 1038,442.4 1037.3,442.8 1036.7,443.8 1036.4,444.7 1035.8,446.5 1035.4,447.4 
	1032.4,452.2 1031.8,452.9 1030.8,453.4 1029.9,454 1028.9,455.5 1026.6,460.3 1026,461.1 1025.3,461.9 1020.4,464.5 1019.2,465.8 
	1017.8,468.8 1014.6,473.1 1014.1,473.9 1013.6,474.8 1013.3,475.7 1013,476.5 1012.9,477.3 1012.8,478.1 1012.6,478.9 1010,483.9 
	1009.7,484.8 1008.8,488.1 1008.5,488.9 1008,489.7 1006.8,491.3 1000.3,497.7 998.4,500.6 998.2,501.3 998.5,501.9 999,502.4 
	1002.3,504.3 1002.9,504.7 1003.2,505.4 1003.3,506.2 1003.2,507.1 1002.9,507.9 1002.5,508.5 999.3,512.5 998.5,514 998.2,514.9 
	997.9,515.9 997.8,516.8 997.6,519.8 996.7,520.7 995.2,521.5 991.7,522.5 990,523.5 989.1,524.5 988.9,525.4 988.8,526.4 
	988.6,527.2 988.4,528.1 987.8,529.5 982.6,539.5 981.1,541.3 980,541.7 "/>
<polyline class="st1" points="959.5,565 958.9,564.9 958.1,563.7 957.7,562.6 957.5,561.6 957.4,560.7 957.4,559.7 957.4,558.7 
	957.2,557.9 949,549.7 947.3,547.5 946.4,545.8 946.7,544.2 946.7,544 946.8,543.1 946.8,542.3 946.4,541.4 945.8,540.7 
	943.7,539.4 938.5,537.9 "/>
<polyline class="st1" points="938.5,537.9 933.2,538 928.6,538.9 927.4,539.7 925.2,541.6 921,547.6 913,562.2 912.3,563.2 
	903.5,569.5 902,571.9 898.7,578 897.5,580.8 897.3,581.6 897.1,582.4 896.9,583.2 896.4,586.9 896.4,588 896.5,589.3 896.6,590.3 
	896.9,591.2 898.1,593.4 899.4,595.2 900.6,597.8 899.4,600.7 898.2,601.8 896.2,602.8 895.8,603.3 895.3,603.9 894.9,604.5 
	894.6,605.2 894.4,606 893.1,611.8 892.8,612.5 892.4,613.2 889.3,617.1 888.5,618.3 887.6,620.4 887.1,621.8 886.8,622.9 
	886.7,623.6 886.6,624.4 887,625.4 887.5,626 888.2,626.4 893.4,627.3 893.9,627.8 894.3,628.4 894.4,629.2 894.6,630 894.7,630.9 
	894.8,632.7 894.7,638.6 894.8,639.9 894.9,641 895.4,642.4 895.7,643.3 896.1,645.3 896.2,646.4 896.1,647.6 895.6,649 
	895.2,649.9 894.7,650.7 894.3,651.2 893.5,652.5 893.3,653.1 893.2,653.2 893,654.3 892.9,655 892.8,655.7 892.7,658.3 
	892.8,659.7 893,660.8 893.3,661.5 902.5,673 903.8,673.7 905.3,674 "/>
<line class="st1" x1="980" y1="541.7" x2="971.7" y2="540.9"/>
<polyline class="st1" points="971.7,540.9 970.8,541.4 970.3,542 969.9,542.7 969.3,544.3 969,546 968.7,547.7 968.6,548.5 
	968.5,548.6 968.1,549.4 965.3,553.6 964.3,555.7 962,561.6 961.3,563 960,564.7 959.5,565 "/>
<polyline class="st1" points="909,673.1 909.7,673.2 910.2,673.6 910.3,674.7 910.2,676.1 909.6,681.4 909.4,682.5 909.1,683.6 
	907.1,687.5 906.7,688.4 906.3,689.8 905.8,692.1 905,694.8 904.8,695.1 904.2,695.7 893.1,704 892.7,704.5 892.4,705.6 
	892.1,706.9 892,709.5 892.1,712.1 892.3,715.7 892.3,716.6 892.3,717.7 892.1,718.8 891.6,720.3 891.2,721.2 890,723.1 
	889.1,725.1 888.8,726.2 888.6,727.4 888.4,729.7 888.1,745.8 887.4,750.8 884,764.2 882.8,767.9 876.5,780 876.3,780.8 
	876.3,781.6 876.7,782.5 877.1,783.1 877.7,783.7 878.1,784.2 878.3,784.8 878.2,785.6 877.9,786.1 877.4,786.6 874.6,788.7 
	874.3,789.4 874.2,790.2 874.4,791.3 874.7,792.1 875.1,792.7 876.9,794.7 877.2,795.3 877.3,796.6 877,798.3 876.1,801.4 
	875.1,804.2 874.4,805.5 873.2,807.2 872.9,807.9 872.8,808.7 872.9,809.8 873.1,810.7 874.3,815.2 875,817.3 874.6,819.3 
	871.4,823.1 870.8,824.1 870.6,824.7 870.4,825.5 870.3,826.5 870.3,827.8 870.4,830.1 870.5,831.3 871.2,834.3 873.8,840.6 
	874.2,841.4 874.7,841.9 875.4,842.3 876.7,842.8 881.8,843.6 883,844.3 883.9,845.2 886.3,849.4 886.6,850.3 886.7,851.4 
	886.5,853.4 886.3,854.6 885.7,857.1 885.6,858 885.4,859.6 885.1,860.4 885,861.4 885,862.6 885.1,864.7 885.1,866.1 884.9,867.4 
	884.5,868.1 881.7,871.1 881.4,871.7 881.1,872.5 881.1,873.6 881.4,875.5 881.6,876.6 882.7,879.5 883.1,881 883.3,882 
	883.6,885.3 883.8,886.5 884,887.4 885.1,889.2 885.4,889.8 887.8,897.6 888.1,898.2 888.4,898.8 888.9,899.3 889.4,899.7 
	896.3,902.3 896.7,903 896.8,904 896.4,906.1 895.4,909.7 893.6,914.6 893.5,915.5 893.4,916.5 893.6,917.9 894.1,919.6 
	894.3,920.4 894.4,921.3 894.2,922.3 893.8,923.7 891.8,927.9 891.4,928.4 890.9,928.8 889.7,929.4 889.2,929.8 888.8,930.4 
	888.2,931.7 887.6,934.5 887.2,937.9 886.8,939.5 886.5,940.7 881.9,953.3 881.7,954.2 881.6,955.4 881.5,956.4 881.5,957.3 
	881.7,958.6 883.5,964.7 884.9,968 886.8,974 "/>
<line class="st1" x1="905.3" y1="674" x2="909" y2="673.1"/>
<polyline class="st1" points="226.7,512.8 225.3,512.5 224.8,510.7 224.7,508.3 224.9,485.5 225.8,377.9 "/>
<polyline class="st1" points="308.3,620.7 309.6,619.1 310.4,617 318,579.5 317.2,578.3 298.5,571.3 295,568.2 292.4,564.9 
	267.2,510.4 265.5,507.5 263.6,505.1 261.2,504.7 "/>
<line class="st1" x1="261.2" y1="504.7" x2="226.7" y2="512.8"/>
<polyline class="st1" points="264.9,609 305.7,620.6 308.3,620.7 "/>
<polyline class="st1" points="253.8,627.9 255.2,626.4 256.2,624.7 260.7,612.5 261.7,610.5 262.9,609.1 264.9,609 "/>
<line class="st1" x1="222.2" y1="623.9" x2="253.8" y2="627.9"/>
<polyline class="st1" points="213.1,644.8 215.3,643.3 220.6,626.6 221.4,624.8 222.2,623.9 "/>
<line class="st1" x1="195" y1="643.6" x2="213.1" y2="644.8"/>
<polyline class="st1" points="188.1,662.7 189.6,661.1 190.7,659 193.7,645.4 194.2,644.4 195,643.6 "/>
<polyline class="st1" points="169.6,644.7 170.6,646.5 170.8,648.7 170.6,651.1 170.8,653.4 171.7,656.1 173.1,658.6 174.7,660.6 
	179.1,662.1 188.1,662.7 "/>
<polyline class="st1" points="56.5,656.8 74.7,647.8 169.6,644.7 "/>
<line class="st1" x1="31.2" y1="653.4" x2="56.5" y2="656.8"/>
<polyline class="st1" points="132.8,816 126.4,815.1 123.4,814 122.3,813.2 118.7,809.2 116.6,807.4 114.1,805.9 105,802.1 
	102.8,800.2 102.7,799.4 102.6,797.8 101.9,796.3 100.5,794.5 97.1,790.6 95.9,788.7 95.2,787.3 95.4,786.5 95.6,785.6 96.1,784.1 
	96.6,781.8 96.8,780.9 96.8,780.1 96.7,779.3 96.6,778.5 96.3,777.1 96.2,776.3 96.1,775.5 96.1,774.6 96.2,773.7 96.4,772.9 
	96.6,772 97.1,770.5 99.5,765.7 100.6,762.9 100.9,762.1 100.9,760.4 100.6,758 99.5,753 98,748.1 97.3,746.5 88.8,732.5 
	87.8,731.3 63.6,711.2 43.1,702.9 33.2,702 28.8,700.2 22.4,693.8 10.5,685.9 8.8,684.2 0.9,672.9 0,670.3 1,668 13.6,660.2 
	25.1,654.1 31.2,653.4 "/>
<polyline class="st1" points="136.7,948.6 129.4,948.2 125.3,947.1 124.6,945.4 124.4,943.3 124.8,934 123.6,929.8 117.2,926.8 
	114,925.6 113.5,921.8 114.5,893.5 114.5,890.6 114.2,886.8 113.3,883.8 109.8,876.1 104.4,858.7 104.6,857.6 105,856.9 
	111.9,852.8 124.4,842.8 126.3,840.8 126.7,840.3 130.5,833.3 131.1,832.5 131.8,831.4 132.3,829.4 134.2,819.6 134.4,817 
	134.2,815.8 "/>
<line class="st1" x1="134.2" y1="815.8" x2="132.8" y2="816"/>
<polyline class="st1" points="247.4,954.7 247.8,954.6 248.2,954.3 248.5,953.8 248.7,953 263.8,868.3 217.5,860.2 "/>
<polyline class="st1" points="217.5,860.2 207.4,862 205.2,873.6 204.6,875.6 203.7,877 202,877.2 "/>
<line class="st1" x1="202" y1="877.2" x2="185.4" y2="873.9"/>
<polyline class="st1" points="185.4,873.9 184.2,875.4 183.4,877.4 177.2,909.1 177.1,910.3 177.1,911.2 177.2,911.9 177.7,913.3 
	178.5,915.1 179.3,916.1 181.1,918 181.4,918.6 181.5,919.4 181.5,925.7 181.3,927.9 180.6,929.7 179.4,930.2 176.5,930.3 "/>
<line class="st1" x1="176.5" y1="930.3" x2="146.6" y2="929.6"/>
<polyline class="st1" points="146.6,929.6 140.2,933.1 139.5,944.6 139.1,946.6 138.4,948.1 136.7,948.6 "/>
<polyline class="st1" points="242.7,954 245.8,954.7 247.4,954.7 "/>
<polyline class="st1" points="241.9,959.2 242.5,958.9 242.6,958.4 242.5,957.9 242.1,956.8 241.9,956 241.8,954.7 242.1,954.1 
	242.7,954 "/>
<line class="st1" x1="240.4" y1="959.2" x2="241.9" y2="959.2"/>
<polyline class="st1" points="243.1,1082.7 244.5,1082.4 245.2,1080.8 245.7,1078.8 251.7,1047.5 252,1045.7 254.5,1028.4 
	251.7,1024.1 248.3,1023.4 231.5,1018.8 228.6,1014.4 238.8,960.9 239,960.1 239.3,959.5 239.8,959.3 240.4,959.2 "/>
<line class="st1" x1="236.8" y1="1081.7" x2="243.1" y2="1082.7"/>
<polyline class="st1" points="222.2,1089.7 231.6,1082.5 236.8,1081.7 "/>
<polyline class="st1" points="218.4,1086.9 219.7,1087 222.2,1089.7 "/>
<polyline class="st1" points="188.7,1124.3 189.5,1117.7 189.9,1112 190.5,1107.4 191,1105.3 191.6,1103.6 192.9,1100.9 
	193.4,1100.1 194.4,1099.1 218.4,1086.9 "/>
<polyline class="st1" points="1262.2,86.8 1261.8,86.5 1260.8,84.4 1259.4,82.3 1258.8,80.7 1258.6,80 1258,78.4 1256.4,75.4 
	1254.9,73.3 1253.4,71.9 1253,71.2 1252.9,70.4 1253,69.5 1255.5,59 1255.6,58 1255.4,57.1 1253.4,50 1253.3,49.2 1253.2,48.3 
	1253.2,45.1 1253.1,42.5 1253.1,41.7 1252.9,40.9 1252.3,38.6 1251.9,36.7 1251.9,35.4 1252,34.3 1252.2,33.4 1253.1,29.8 
	1253.4,29 1253.8,28.3 1255.1,27.6 1255.6,26.7 1255.9,25.5 1256.5,22.6 1256.9,21.5 1260.1,15.1 1260.7,13.2 1260.9,11.7 1261,9.8 
	1261.1,8.7 1261.3,7.6 1263.7,2.9 1264.4,1.2 1265,0.1 "/>
<polyline class="st1" points="1298.6,84.7 1297.8,84.6 1296.9,84.1 1292.9,80.2 1292.2,79.9 "/>
<polyline class="st1" points="1292.2,79.9 1291.5,80.2 1288.3,83.8 1283.9,86.1 1280.7,86.3 "/>
<polyline class="st1" points="1304.4,132.4 1305.9,131.8 1307.4,130.6 1309.4,128 1310.1,126.5 1310.8,124.7 1311,123.5 1311,122.6 
	1310.9,119.3 1310.8,118.5 1310.6,117.7 1310.3,116.9 1307.1,112.7 1306.4,112.1 1305.7,111.6 1303.6,111.2 1303.3,111.1 
	1302.6,110.7 1302.1,110 1301.8,109.4 1301.2,108.8 1299.8,108.2 1299.2,107.8 1299,107.2 1299.1,106.3 1299.2,105.5 1300.7,100.3 
	1300.9,99.2 1301.1,98.4 1301.2,97.5 1301.2,95.8 1301.2,94.8 1301.5,93.6 1303.2,90.9 1303.6,89.3 1303.9,87.8 1303.7,85.9 
	1303.4,85.1 1303,84.5 1302.4,84 1301.6,83.9 "/>
<line class="st1" x1="1301.6" y1="83.9" x2="1298.6" y2="84.7"/>
<line class="st1" x1="1280.7" y1="86.3" x2="1270.5" y2="84.4"/>
<line class="st1" x1="1270.5" y1="84.4" x2="1262.2" y2="86.8"/>
<polyline class="st1" points="1297.2,127.2 1297.8,127.2 1298.4,127.4 1300.6,129.6 1302.9,131.9 1303.6,132.3 1304.4,132.4 "/>
<polyline class="st1" points="1287.4,147.5 1286.6,147.4 1285.8,147.1 1285.2,146.4 1284.9,145.4 1285.1,143.8 1285.5,142.7 
	1286.1,141.8 1288.2,140 1288.9,139.1 1288.8,138.5 1288.2,137.8 1287.4,137.2 1286.8,136.3 1286.7,135 1287.1,133 1287.7,131.9 
	1288.4,131.1 1289.9,130.3 1294.2,129.7 1296.5,127.7 1297.2,127.2 "/>
<polyline class="st1" points="1285.5,175.9 1293.8,174.2 1296.1,172.7 1298.3,170.4 1303.4,162 1304.3,159.9 1304.7,158.5 
	1304.7,157.7 1304.7,156.9 1304.5,155.3 1304.1,153.7 1303.9,152.9 1303.4,151.4 1300.9,146.2 1300.6,145.5 1300.4,144.8 
	1300.1,144.2 1299.4,144.1 "/>
<polyline class="st1" points="1299.4,144.1 1295.9,145.1 1287.4,147.5 "/>
<polyline class="st1" points="1281.3,174.6 1285.1,175.8 1285.5,175.9 "/>
<polyline class="st1" points="1245.5,228.4 1247,227.7 1247.7,227.1 1248.3,226 1248.5,225 1248.5,224.2 1248.2,223.4 1247.8,222.6 
	1247.6,221.7 1247.6,220.4 1247.9,219 1247.8,218 1246.9,216.2 1246.7,214.7 1247.2,214.3 1248.7,214.3 1249.5,214.1 1250.1,213.5 
	1254.6,206.8 1255.4,206 1258.3,204.4 1260.6,203.8 1261.3,203.3 1266.7,197.3 1268.8,195.7 1269.7,194.7 1270.6,192 1271.2,190.8 
	1271.9,190 1272.5,189.5 1275.6,188.3 1276.5,187.7 1279.4,183.7 1279.7,182.9 1279.5,182.1 1278,180 1277.7,179.1 1277.5,178.1 
	1277.8,176.5 1278.3,175.6 1279,174.9 1279.7,174.7 1281.3,174.6 "/>
<line class="st1" x1="1243.2" y1="228.3" x2="1245.5" y2="228.4"/>
<polyline class="st1" points="1234.1,259.9 1234.7,259.8 1238.7,257.4 1241.3,255.2 1241.7,254.3 1242,253 1242,251.8 1241.8,247.2 
	1241.5,244.3 1241.5,240.8 1241.4,238 1241.4,237.5 1241.3,236.9 1241,236.2 1240.6,235.5 1240.2,234.8 1239.9,234 1239.7,233.2 
	1239.6,231.5 1239.9,230.3 1240.4,229.4 1241.7,228.6 1243.2,228.3 "/>
<line class="st1" x1="1231.8" y1="259" x2="1234.1" y2="259.9"/>
<polyline class="st1" points="1202,282.9 1203.6,282.7 1205.3,281.9 1205.8,281.2 1205.9,280.5 1205.8,279.7 1205.6,278.9 
	1205.5,278.1 1205.9,277 1206.3,276.1 1206.6,275.2 1206.7,274.3 1206.8,273.5 1207,272.5 1207.4,271.4 1208,270.7 1208.7,270.2 
	1219.6,266.9 1219.8,266.8 1223,264.7 1225.3,264.3 1226.3,263.8 1229.5,260.3 1230.7,259.3 1231.8,259 "/>
<polyline class="st1" points="1199.1,281.9 1199.8,282 1201.3,282.8 1202,282.9 "/>
<polyline class="st1" points="1189.2,292.5 1190.2,292.2 1191.5,291.5 1192.3,290.6 1192.9,289.7 1193.8,287.7 1196,284.4 
	1197.7,282.6 1199.1,281.9 "/>
<line class="st1" x1="1184.2" y1="292.1" x2="1189.2" y2="292.5"/>
<line class="st1" x1="1177" y1="294.5" x2="1184.2" y2="292.1"/>
<line class="st1" x1="1172.2" y1="293.5" x2="1177" y2="294.5"/>
<polyline class="st1" points="1153.2,314.5 1153.9,314.4 1159.5,310.6 1160.3,309.7 1160.8,308.8 1161.1,307.8 1161.5,306.7 
	1162.2,305.1 1162.9,304.3 1163.6,303.8 1165,303.5 1165.5,303 1166.4,300.6 1167.3,298.8 1169.7,294.9 1170.4,294.1 1171.1,293.6 
	1172.2,293.5 "/>
<line class="st1" x1="1151.6" y1="314.3" x2="1153.2" y2="314.5"/>
<polyline class="st1" points="1141.2,323.1 1142.7,322.7 1146.8,319.5 1147.9,318.2 1149.9,315 1150.8,314.4 1151.6,314.3 "/>
<polyline class="st1" points="1136.3,320.4 1139.9,323 1141.2,323.1 "/>
<polyline class="st1" points="1126,359.8 1126.7,359.7 1127.2,359.1 1127.6,358.4 1127.8,357.5 1127.9,356.7 1127.9,355.9 
	1127.8,355.1 1127.7,354.4 1127.6,353.6 1127.1,352.2 1126.2,350.8 1123.7,347.5 1123.6,346.5 1123.8,345.2 1126.3,340.1 
	1126.6,339.3 1126.8,338.4 1126.8,336.8 1126.9,335.8 1127.3,334.7 1127.8,333.8 1130.6,331.4 1131.3,330.5 1134,325.7 
	1134.3,324.7 1134.3,323.9 1134.3,323.1 1134.3,322.2 1134.7,321.2 1135.5,320.5 1136.3,320.4 "/>
<polyline class="st1" points="1118.7,355.2 1119.3,355.5 1121.9,357.9 1125.2,359.7 1126,359.8 "/>
<polyline class="st1" points="1091.1,417.9 1098.4,416.6 1099.1,416.1 1099.6,415.3 1099.6,414.6 1099.5,413.8 1099.4,413 
	1098.8,411.7 1098,410.3 1096.6,408.4 1096.3,407.7 1096.1,407 1096.4,406.2 1100.9,400.4 1101.2,399.5 1100.9,398.9 1100.5,398.2 
	1097.9,395.8 1097.4,395.2 1097.3,394.5 1097.5,393.6 1098.9,391 1099.3,390.1 1099.4,389.3 1099.5,388.5 1099.4,387.7 
	1099.4,386.8 1099.4,385.9 1099.9,384.8 1100.4,384.1 1104.5,380.8 1105.6,379.6 1106.2,378.5 1106.5,377.6 1106.7,376 1107,374.4 
	1107,372.8 1107.1,372 1107.3,371.1 1107.5,370.3 1107.9,369.5 1108.5,368.2 1108.8,367.6 1109.3,366 1109.9,364.7 1112.7,360.3 
	1115.2,357.5 1118,355.2 1118.7,355.2 "/>
<line class="st1" x1="1088.5" y1="417.7" x2="1091.1" y2="417.9"/>
<polyline class="st1" points="1046.6,440 1051.8,439.4 1053.8,438.4 1055,437.2 1077.3,422.5 1078.5,421.3 1088.5,417.7 "/>
<line class="st1" x1="1260.6" y1="0" x2="1265" y2="0.1"/>
<polyline class="st1" points="1235.1,7.3 1235.6,6.9 1235.9,6.1 1236.2,5.1 1236.8,4.5 1252.7,2.8 1260.6,0 "/>
<polyline class="st1" points="1219.7,4.2 1220.7,4.4 1222.4,5.2 "/>
<polyline class="st1" points="1204.5,39.8 1205.1,39.5 1205.2,38.8 1205.1,38.1 1205.3,37.1 1205.3,36.3 1205.3,35.4 1204.5,32.2 
	1204.3,31.4 1204.3,30.6 1204.2,29.8 1204.3,28.9 1204.7,26.2 1204.5,25.4 1203.9,24.7 1203.5,24 1203.3,23.2 1203,21.6 
	1202.8,19.9 1202.9,19 1203.1,18 1204.6,15 1205.4,13.8 1206.7,12.5 1212.1,8.5 1216.3,6.7 1218.6,4.6 1219.7,4.2 "/>
<line class="st1" x1="1228.9" y1="4.4" x2="1235.1" y2="7.3"/>
<polyline class="st1" points="1222.4,5.2 1224,5.1 1225.5,4.5 1228.9,4.4 "/>
<polyline class="st1" points="1199.8,38.7 1203.5,39.8 1204.5,39.8 "/>
<polyline class="st1" points="1152.1,113.2 1152.8,112.7 1153,112.1 1153,111.3 1152.9,110.5 1152.8,109.7 1152.8,108.8 
	1152.5,107.2 1152.7,106.3 1153.2,105.3 1154.7,103.9 1156.7,103 1160.9,102.6 1162.9,101.6 1163.5,100.8 1166.3,96.6 1168.1,92.9 
	1168.3,92 1168.3,91.1 1168.1,90.3 1167.9,89.5 1167.5,88.8 1166.6,87.4 1166.3,86.6 1166.1,85.8 1166.1,85 1166.2,84.1 
	1166.5,83.2 1166.6,82.3 1166.6,81.5 1166.5,80.7 1166.3,79.9 1166,79.1 1165.6,78.4 1161.9,73.4 1161.7,73.1 1161.2,72 1161,71.2 
	1160.8,70.4 1160.9,69.5 1161.2,68.5 1162,67.3 1162.8,66.7 1167.2,66 1173.6,62.1 1175.9,59.5 1176.6,58.4 1189.1,52.3 
	1190.3,51.4 1192.1,50.7 1192.3,50.1 1192.8,48.4 1193.5,46.5 1193.4,45.8 1193.1,45.2 1193,44.5 1193.2,43.7 1198,39.4 
	1198.9,38.9 1199.8,38.7 "/>
<line class="st1" x1="1136.6" y1="111.7" x2="1152.1" y2="113.2"/>
<polyline class="st1" points="1021.8,236.3 1024.1,235.6 1025.3,234.6 1025.9,234 1026.2,233.3 1026.7,231.7 1027.4,229.9 
	1027.8,229 1027.9,228.1 1028.1,226.5 1028.5,225.5 1029.2,224.6 1034.7,220.1 1035.1,219.5 1035.5,218.7 1036,217.8 1097.3,175 
	1097.9,174 1098.2,173.2 1098.9,168.8 1099.1,167.1 1099.2,165.4 1099.2,164.6 1099.3,163.8 1099.3,162.9 1099.5,159.5 
	1099.4,157.1 1099.4,155.4 1099.6,153.7 1100.1,151.1 1100.3,149.3 1100.3,146.8 1100.3,146 1100.2,145.2 1100.3,144.3 
	1100.4,143.5 1100.8,142.5 1101.3,141.6 1101.8,140.8 1113.1,131.3 1113.6,130.5 1115.2,127.7 1118.7,125 1127.1,120.6 
	1127.5,119.9 1127.5,119.2 1127.4,118.5 1127.9,117.3 1129.2,115.9 1135.1,112.2 1136.6,111.7 "/>
<line class="st1" x1="430.1" y1="223.8" x2="526.4" y2="238.4"/>
<polyline class="st1" points="402.7,245.6 403.2,245.1 403.5,244.4 403.6,243.5 403.7,242.6 403.7,241.7 403.8,240.8 404,239.9 
	404.3,238.9 405,237.9 405.8,237.5 409.3,237.3 410.3,236.9 411.4,235.4 412.1,235 415.9,233.7 416.8,232.8 417.4,231.8 
	418.2,229.9 418.8,229.1 424.4,224.3 430.1,223.8 "/>
<line class="st1" x1="1015.8" y1="235" x2="1021.8" y2="236.3"/>
<polyline class="st1" points="914.2,245.7 915.1,245.7 924.5,239.8 1009.6,238.2 1010.4,236.9 1011.1,236.3 1012,235.7 1013.6,235 
	1015.8,235 "/>
<polyline class="st1" points="914.1,237.9 914,238.2 911.6,242 911.2,242.9 911.3,243.8 911.8,244.6 913.2,245.5 914.2,245.7 "/>
<polyline class="st1" points="526.4,238.4 842.9,238.2 914.1,237.9 "/>
<line class="st1" x1="400" y1="245.2" x2="402.7" y2="245.6"/>
<polyline class="st1" points="394.1,250 397.6,248.7 398.2,247.8 398.5,246.8 399.2,245.6 400,245.2 "/>
<polyline class="st1" points="387,248.5 388.7,248.6 392.4,249.9 394.1,250 "/>
<polyline class="st1" points="225.8,377.9 383.7,273 386.2,270.7 385.8,270 383,267.9 382.5,267.3 382.1,266.6 382,265.8 381.9,265 
	382.1,264.1 383.3,261.3 383.6,260.4 383.9,259.4 383.9,258.5 383.9,257.7 383.4,256.2 383.2,255.5 383,254.7 382.8,253.9 
	382.7,253.1 383,252.1 383.6,251.1 384.6,249.8 386.3,248.7 387,248.5 "/>
<polyline class="st1" points="188.7,1124.3 189.2,1126.4 190.9,1132.2 192.3,1140.6 193.5,1145.1 194.5,1150.7 194.8,1152 
	195.6,1153.7 195.8,1154.4 195.9,1155 196.3,1157.3 196.4,1159.3 196.4,1160.4 196.3,1161.6 195.7,1163 195.3,1163.8 193.1,1166.2 
	192.9,1166.7 193.1,1167.1 193.8,1167.7 194.1,1168.2 194.3,1168.9 194.1,1170.4 194.2,1171.4 194.6,1172.3 195,1172.9 
	200.8,1177.8 200.9,1178.1 200.8,1178.5 200.2,1179 "/>
<line class="st1" x1="200.2" y1="1179" x2="198" y2="1178.9"/>
<polyline class="st1" points="198,1178.9 197.5,1179.1 197.1,1179.5 196.9,1180.1 196.8,1180.8 197.2,1181.4 197.8,1181.7 
	202.9,1183.3 203.5,1183.3 "/>
<polyline class="st1" points="205,1182 205.4,1182.3 209.5,1186.3 209.9,1186.9 209.9,1187.6 207.5,1192.2 207.1,1193.2 
	205.9,1194.9 193.7,1205.8 191.4,1208.5 191.2,1209.9 191.1,1210.5 191,1211.4 191.1,1212.8 191.1,1218.9 191.5,1222.9 
	193.4,1234.9 193.6,1238.5 193.7,1241.6 193.5,1243.9 193.9,1252.1 193.8,1252.9 193.5,1257 193.5,1257.8 193.5,1259.2 
	193.8,1262.9 193.9,1265 194.3,1269.2 194.7,1269.9 195,1270.5 197.8,1271.2 230,1276.2 230.3,1276.6 230.5,1277.4 227.8,1296 
	227.9,1296.6 228.1,1297.5 228.9,1297.9 229.7,1298.2 230.5,1298.2 "/>
<polyline class="st1" points="203.5,1183.3 204,1183 204.6,1182.1 205,1182 "/>
<polyline class="st1" points="418.5,1193.3 420.4,1194.1 433.4,1202.9 "/>
<polyline class="st1" points="381.4,1240.7 384.4,1240.2 385.2,1239.9 385.9,1239.2 388.1,1236.7 390.2,1233.4 390.2,1233.3 
	390.8,1232.4 402.2,1218.9 402.6,1218.1 402.9,1217.4 403.1,1216.7 404.1,1212.7 404.8,1210.3 408.4,1202.5 409.9,1200.3 
	414.4,1195.7 417.3,1193.7 418.5,1193.3 "/>
<polyline class="st1" points="359.7,1225.5 362.6,1225.9 370.9,1229.9 372.1,1230.7 373,1231.7 374.4,1233.7 374.9,1234.8 
	375.5,1237 375.8,1237.6 377,1239.7 378.1,1240.6 381.4,1240.7 "/>
<polyline class="st1" points="336.7,1251.4 338.4,1251.1 339.6,1250.7 340.8,1249.7 341.4,1248.9 341.8,1248 342.4,1245.8 
	342.7,1245.1 343.4,1244 347,1240.5 352.7,1231.6 355.2,1226.6 355.7,1226.1 356.3,1225.8 359.7,1225.5 "/>
<line class="st1" x1="331.4" y1="1250.3" x2="336.7" y2="1251.4"/>
<polyline class="st1" points="320.3,1253.3 329.8,1250.4 331.4,1250.3 "/>
<line class="st1" x1="314.6" y1="1253.2" x2="320.3" y2="1253.3"/>
<polyline class="st1" points="301.8,1264.4 303.4,1264.1 304,1263.5 304.4,1262.8 305.8,1258.4 306.1,1257.8 306.5,1257.3 
	306.9,1256.9 312.8,1253.7 314.6,1253.2 "/>
<polyline class="st1" points="288.4,1261.5 290,1261.7 301.8,1264.4 "/>
<polyline class="st1" points="267.3,1332.2 269.2,1332.1 272.9,1331 274.3,1330.8 275.1,1329.9 275.5,1329.1 276.7,1321.9 
	277,1315.4 277.3,1312.9 277.2,1312.3 276.9,1311.7 276,1310.8 275.8,1310.2 275.9,1309.1 277.4,1298.9 277.3,1298 276.8,1297.6 
	275.7,1297.1 275.3,1296.7 275.1,1296.3 275.1,1296.1 275,1296 275.1,1295.7 275.2,1294.4 278,1278.9 278.3,1277.7 278.7,1276.9 
	279.2,1276.2 280.3,1275.7 291,1273.4 291.4,1273 291.6,1272.5 291.3,1271.7 286.1,1266.2 285.8,1265.7 285.7,1265.1 285.9,1264.2 
	286.2,1263.7 286.6,1263.1 287.4,1262.2 288.4,1261.5 "/>
<polyline class="st1" points="234.1,1295 234.9,1295.4 238,1297.9 240.1,1299 243.2,1299.7 244,1300.2 244.9,1301 245.6,1302.6 
	245.9,1303.6 246.2,1304.4 246.4,1305.1 246.8,1305.7 248.3,1306.5 258.5,1308.8 259.1,1309.1 259.4,1310.8 259.5,1312.2 
	257.5,1324.9 257.4,1326.1 257.5,1326.7 257.6,1327.4 257.8,1328 258.2,1328.5 258.7,1328.9 259.7,1329.6 262.4,1330.8 
	267.3,1332.2 "/>
<polyline class="st1" points="230.5,1298.2 231.1,1298 231.6,1297.6 232,1297.1 232.7,1296 233.1,1295.5 233.5,1295.2 234.1,1295 
	"/>
<polyline class="st1" points="527.6,1125.1 500,1119.2 499.4,1118.8 499.2,1117.9 499.1,1117.1 499.3,1115.4 501.7,1103.4 
	501.8,1102.5 501.2,1101.6 499.7,1100.5 469.9,1093.1 "/>
<polyline class="st1" points="469.9,1093.1 469.4,1094.6 469.3,1095.2 466.3,1105 465.1,1110.5 464.8,1111.3 464.5,1112 "/>
<line class="st1" x1="602.6" y1="1123" x2="531.6" y2="1107.9"/>
<polyline class="st1" points="531.6,1107.9 531.4,1110.2 531.3,1111.7 529.1,1123.4 528.9,1124.2 528.4,1124.8 527.6,1125.1 "/>
<line class="st1" x1="464.5" y1="1112" x2="442.5" y2="1108"/>
<polyline class="st1" points="442.5,1108 441.8,1108.2 441.2,1109 440.9,1109.8 440.6,1110.7 437.5,1124.1 437,1125.6 434.2,1125.6 
	"/>
<line class="st1" x1="434.2" y1="1125.6" x2="409.2" y2="1120.5"/>
<polyline class="st1" points="409.2,1120.5 408.4,1120.6 408,1120.9 407.7,1121.5 407.5,1122.2 407.1,1125.4 406.9,1126.3 
	404.8,1134.3 400.4,1156.3 400.5,1157 401.1,1157.5 423.1,1163.9 423.9,1164.7 423.9,1166.3 423,1171 423,1172.4 423.4,1173.4 
	424.9,1174 431,1175.2 432.8,1176.4 435.1,1178.6 435.8,1182.8 436.5,1184.6 436,1188.8 433.4,1202.9 "/>
<polyline class="st1" points="878.2,1015.6 875,1017.2 870.4,1020.5 866.3,1021.7 865.4,1022.4 863.4,1024.5 857.7,1032.8 
	857.2,1033.3 856.5,1033.5 "/>
<polyline class="st1" points="856.5,1033.5 855.4,1033.3 854.8,1033 853.7,1032.1 852.9,1032.1 "/>
<polyline class="st1" points="852.9,1032.1 851.8,1032.5 850.2,1033.6 850,1033.7 848.4,1035.1 846.5,1037.7 844.3,1038.6 
	836.8,1039.4 "/>
<line class="st1" x1="735.5" y1="1041.3" x2="711.3" y2="1036.5"/>
<polyline class="st1" points="711.3,1036.5 710.4,1036.5 709.6,1036.8 708.8,1037.9 708.1,1039.4 707.9,1039.6 707.5,1039.7 "/>
<line class="st1" x1="836.8" y1="1039.4" x2="742.9" y2="1038.3"/>
<polyline class="st1" points="742.9,1038.3 741.8,1038.5 736.8,1041.1 735.5,1041.3 "/>
<line class="st1" x1="707.5" y1="1039.7" x2="706" y2="1039.6"/>
<polyline class="st1" points="706,1039.6 705.5,1039.8 704.7,1040.3 703.9,1041.8 701.3,1048.3 700.9,1048.8 699.9,1048.9 "/>
<line class="st1" x1="699.9" y1="1048.9" x2="695.9" y2="1048.5"/>
<polyline class="st1" points="695.9,1048.5 691.6,1050.3 687.2,1061.7 687.5,1063.9 688.2,1066.3 688.2,1068.2 687.8,1070.4 
	686.6,1074.6 685.9,1076.5 685.1,1078 684.1,1078.4 683.2,1078.4 "/>
<line class="st1" x1="683.2" y1="1078.4" x2="656.9" y2="1072.7"/>
<polyline class="st1" points="656.9,1072.7 656.3,1072.8 655.7,1073.3 655.4,1074.5 654.5,1078.3 650.8,1090.5 650,1092.4 
	649,1093.8 647.4,1094.1 "/>
<line class="st1" x1="647.4" y1="1094.1" x2="623.8" y2="1089.3"/>
<polyline class="st1" points="623.8,1089.3 622,1089.5 621,1091.1 620.5,1092.1 619.8,1096 619.6,1096.8 617.4,1102.9 617,1103.6 
	616.4,1104.1 615.6,1104.4 613.9,1104.5 "/>
<line class="st1" x1="613.9" y1="1104.5" x2="609.1" y2="1103.2"/>
<polyline class="st1" points="609.1,1103.2 608.4,1103.4 607.8,1104.2 606.3,1111.4 603.8,1120.6 602.6,1123 "/>
<polyline class="st2" points="226.8,1291.2 228.8,1291.6 230.6,1292.2 231.8,1293.2 232.3,1294.4 231.9,1296.8 233,1300.5 
	233.5,1303.2 "/>
<polyline class="st2" points="505.8,863.6 507.1,861.9 508.8,860.7 511,860.1 513.2,860.3 515.1,860.8 516.3,860.7 517,859.5 
	517.6,857.9 518.5,856.7 519.8,856.2 521.4,856.2 523.2,857.4 525,859.5 526.3,863 527.3,871.9 528.2,874.7 529.5,877.4 
	531.1,881.4 532,885.1 531.9,887.4 531.5,889.1 531.4,893.6 530.9,895 530.6,896.5 531.1,899.1 532.7,901.5 535,902.5 537.1,903.1 
	538.2,904.5 539.1,906.1 540.9,907.3 542.6,909.1 544.1,915 545.6,916 547.4,915.6 550,914.2 551.9,913.9 554,914.4 555.9,915.5 
	558,918.5 "/>
<polyline class="st2" points="123.5,935.9 125.4,943.2 126.5,946.1 127.8,946.8 129.6,944.8 131.2,941 132.2,937.5 132.4,934.5 
	132.1,931.8 132.7,929.3 136.8,924 137.3,922.3 137.5,920.5 140.1,913.8 141.3,910 141.8,907.1 141.8,905.1 142.2,902.6 
	143.7,898.5 143.6,894.1 139.9,890.9 135.3,889 132.7,887.7 131.6,885.7 130.5,882 130.3,877.8 131.2,874.5 132.4,872 132.7,870.2 
	132.8,869 133.8,866.9 133.1,863.5 133.2,861.4 134,859.6 135.2,858.4 136.5,858.1 139,859.5 140.8,859.8 142.5,859.5 144.7,858.3 
	146.7,858.1 148.7,858.4 151,859.7 152,859.8 153.2,858.6 155.7,852.5 158.8,846.5 159.2,844.2 158.6,842.2 155.5,836.2 
	155.1,834.3 155.1,829.8 154.2,816 154.3,813.8 155,811.4 154.5,808.7 155.2,804.6 155.1,802.8 155.1,800.5 155.9,797.5 
	157.2,794.7 158.5,792.9 158.6,791.3 155.5,785.9 155.1,783.6 155.4,781.1 155.4,774.4 155.8,771.8 155.5,770.2 154.3,768.3 
	150.6,765.1 149.2,763.2 148.8,761.4 149.2,759.2 148.5,756.4 148.8,754 148.7,751.4 147.5,749.3 145.5,746.9 143.4,743.8 
	141.8,740.8 140.5,737.7 137.9,735.9 136,733.2 131.3,724.5 128.5,721.9 127.1,718.9 124.8,716.2 122.8,712.4 121.3,710.1 
	119.2,708.4 115,707.1 114.2,706.3 113.9,705.1 112.3,702.4 112,700.9 111.4,699.1 109.9,696.9 107.3,694.5 101.1,689.9 98.7,686.9 
	96.7,684 94.7,681.8 89.7,677 82.7,671.9 74.2,663.8 71.2,661.7 69.2,661.2 66,661.2 62.1,658.8 58.9,657.5 58.5,656.3 58.1,653.8 
	56.8,649.8 54.6,645.7 50.3,640.5 49.5,637.8 48.8,633.4 47.6,626.7 46.2,620.4 45,617 "/>
<polyline class="st2" points="404.8,1154.4 406,1154.8 407.1,1154.8 408.9,1153.6 410.1,1153.3 411.3,1152.7 411.9,1151.1 
	411.7,1149.3 409.4,1146.9 408.3,1144.2 408.2,1141.2 408.9,1138.9 410.5,1137.6 412.3,1136.8 413.8,1137 414.6,1137.7 
	415.6,1139.2 417.7,1141.2 420.3,1142.8 423.7,1144 425.5,1146 430.4,1148.1 431.8,1149.4 432.6,1150.4 433.6,1150.9 434.6,1150.4 
	436.3,1147.5 438,1146.6 439.5,1146.9 440.4,1148.7 440.4,1151 439.3,1154.1 438.7,1158.4 438.2,1160.5 438,1162.1 438.5,1163.1 
	439.2,1164.1 439.6,1165.4 440.6,1166.4 445,1166.7 449.3,1169 455.1,1170.8 456.2,1172.3 456.6,1173.9 "/>
<polyline class="st2" points="487.5,852 489.1,848.7 489.8,845.5 489.1,842.7 488.1,839.8 487.6,836.6 487.7,834.1 488.3,831.3 
	488.2,828.8 487.8,826.2 486.5,823.2 484.6,817.9 482.9,814.3 482.5,811.9 482.4,809.6 482.1,808.2 482.1,807.3 483.5,804.2 
	483.7,802.7 483.3,800.7 482.4,798.1 481.1,795.4 479.8,793.2 478.1,791.7 475.9,790.5 473.7,788.9 470.7,784.4 467.8,783.1 
	467.3,779.6 466.2,778.8 464.6,778.6 463.1,777.9 462.2,776.6 461.8,775 462.1,773.4 462.8,772.3 463.3,770.8 463,768.1 
	461.9,765.3 459.3,761.5 458.5,757.3 457.4,756.8 456.1,756.8 454,755.3 451.2,754.4 449.7,751.7 448.5,750.4 446.6,749.5 
	442.3,748.8 439.7,747.2 433.6,747.8 432.2,747.3 430.8,745.2 428,744.3 425.8,742.6 421.3,741.8 419.8,742.2 417.1,746.5 
	415.5,747.1 411,746.7 408.7,746.3 407.1,745.4 406.4,743.8 406,741.8 405.3,740.2 404.1,739.4 402.2,740.1 400,742 "/>
<polyline class="st2" points="219.3,500.5 222.8,496.8 225.2,493.5 226.2,490.7 226,487.4 225,478.5 224.8,473.3 223.6,470.8 
	222.2,465.6 221.1,462.5 219.5,459.8 215.8,455.9 213.4,451.7 212.5,450.9 211.5,449.6 208.6,442.7 206.7,440.1 204.8,438.7 
	202,437.8 201.1,436.9 200.8,435.1 200.9,432.7 200.6,430.9 199.3,430.7 197.2,432.3 192.6,438.4 "/>
<polyline class="st2" points="275,730 276.6,728.2 277.6,726.7 277.7,725.3 277.5,723.9 277.7,722.3 278.6,721.2 280.2,721.2 
	281.9,720.5 283.4,717.7 284.8,714.3 288.1,710.7 288.7,709.1 289.7,707.6 291.8,706.7 294.6,707.2 297.1,709.2 299,711.2 
	300.5,711.7 301.7,711.6 303,712 303.9,713.5 304.4,715.8 304.6,719 305.1,722.4 306.6,728.9 306.5,730.2 306.6,732 307.7,734.4 
	310,736.3 316.9,737.6 319.6,739.7 321.4,742 324.1,743.8 324.6,745.5 325,747.6 325.8,749.3 326.4,751.1 326.1,756.4 326.4,759.2 
	326.9,762.4 327.2,766 327.1,769.7 326.8,773.1 327.2,775.4 329,776.3 331.4,776.8 333.3,778 334.4,779.9 335.5,783.8 336.2,785 
	337.8,785.6 342.4,786.2 343.9,787 344.9,789.1 346,792.7 346.5,797 346.3,800.7 345.7,804 345.5,807.1 345.1,809.9 344.2,812 
	343.6,814.5 344.5,821.5 344.2,824.2 343.7,826.1 343.5,827.9 344.3,830.1 "/>
<polyline class="st2" points="389.6,870.3 391.3,872.1 393.4,873.5 398.3,874.9 400.7,875.9 402.6,875.9 404.5,875.2 406.3,872.3 
	408.5,871.9 410.9,869.6 413,868.4 415.1,866.3 416.4,865.8 418.1,866.3 421.9,868.4 423.2,868.7 425.2,868.9 428.9,869.8 
	432.7,869.1 435.2,865.5 436.8,860.8 438.7,857.4 439.7,854 439.3,849.3 438.4,844.8 438.4,842.2 438.6,840.2 438.3,837.7 
	437.3,835.3 435.8,834 434.4,833.3 432.8,831.6 430.7,831.4 429.2,829.4 426.3,827.3 425.2,825.9 423.9,824.7 422.1,824.3 
	420.3,824.8 417.7,827.1 415.7,828.5 413.6,829.2 410.1,828.4 407.3,829 398.8,832.8 396.4,833.1 394.7,832.4 393.1,830 
	391.6,830.6 390,831.8 387.5,833.2 386.1,834.7 384.9,836.9 384.1,839.1 382.9,841.4 379.3,845.8 378.6,848.2 379,850.6 
	379.9,852.5 380.3,854.2 379.4,855.8 378.1,857.3 377.3,859.8 376.5,860.6 375.5,860.3 373.8,857.3 372.8,856.3 371.8,856.5 
	370.1,858.9 369,859.8 367.4,859.4 363.3,856.2 361.5,855.9 360.1,856.7 359.1,857.7 357.9,857.3 354.4,851.9 353,850.8 
	352.1,850.5 350.5,848.4 347.3,846 346.6,845 347,844.3 348.9,843.3 349.1,842.2 348.1,840.7 346.1,839.1 341.9,836.9 "/>
<polyline class="st2" points="475.6,855.9 471.7,855.1 469.7,854.3 466.4,851.9 465.3,851.6 464.2,852.5 462.7,854.3 460.6,856.1 
	458.8,858.2 458.1,860.8 457.9,863.3 456.8,866.4 457.1,867.7 457.8,869.1 458.2,870.9 459,872.1 462.3,872.1 463.1,872.6 
	462.8,873.9 462,875.5 460.8,876.8 459.2,877.8 459,878.8 459.8,881 461.5,884.3 463.9,887.7 468.2,892.3 469,894.8 469.5,897.6 
	471.8,902.9 472,904.3 471.7,906.1 471.6,909.5 471.8,912.4 472.4,913.4 473.2,913.4 473.8,914.2 473.8,916.9 473,921.8 
	471.8,926.3 470.6,929.5 470.3,932.8 469.5,934.4 468,935.4 465,936.8 463.8,939.4 462.6,940.5 460.9,940.4 457.7,937.3 
	456.4,936.7 455.4,937.2 453.8,938.9 445.2,939.3 "/>
<polyline class="st2" points="700.3,1052.7 700.3,1050.4 699.5,1048.5 697.4,1046.4 697.3,1044.2 697.2,1040.8 696.6,1036.9 
	695.4,1033.7 694.1,1032.1 692.9,1031.3 691.2,1028.4 689.4,1027.5 687.4,1027.8 685.8,1029.2 684.4,1030.8 682,1032.2 
	680.5,1035.2 679.2,1037.1 677.8,1038.3 676.8,1038.4 674.9,1037.9 671.4,1037.4 667.9,1038.1 665.9,1040.4 664.5,1042.7 
	662.7,1043.7 661.1,1044.1 660.3,1045.1 660,1046.1 659.2,1046.6 658.2,1046.3 655.7,1044.7 652.7,1044.2 651,1041.7 649.5,1040.8 
	647.7,1040.7 644.7,1041.4 643.9,1041 643,1040 641.1,1038.9 638.4,1038.2 635.4,1038.1 632.1,1038.6 629.7,1038.4 627.3,1038.9 
	623.2,1041 622.5,1040.2 622.1,1038.8 621.2,1038.3 619.9,1038.8 616.8,1041.1 614.6,1041.4 610.2,1040.3 604.1,1040.3 
	602.3,1039.3 601.2,1038.2 598.5,1037.6 594.3,1035.8 589.9,1034.8 585.1,1034.4 581.1,1034.9 578.5,1035.5 574.2,1032.7 "/>
<polyline class="st2" points="369.6,605.1 369.9,606.8 368.9,609.2 362.9,616.4 361.2,619.7 361.1,622 362.1,623.4 363.7,624.5 
	365,626 366.6,627.1 371.8,627 375.2,627.3 376.3,626.6 377.2,626.8 379.2,631.7 380.3,633.2 384.1,633.7 387,634.8 "/>
<polyline class="st2" points="644.8,1078.6 645.5,1080.1 646.6,1080.8 651.1,1079.6 652.3,1080.1 653.5,1082.5 658.2,1085.8 
	660,1086.6 661.8,1086.5 663.1,1085.5 663.9,1084.3 665.3,1084.1 668.1,1085.6 670.6,1088.1 671.3,1090.3 671,1092 671.1,1093.5 
	672.1,1094.9 674.2,1096.5 676.3,1099 677.8,1102.6 679.1,1109.2 678.8,1112.1 676.7,1118.6 676.2,1121 675.7,1122.7 673,1125.5 
	672.1,1126.9 671.1,1127.7 667.2,1127.7 664.3,1129.2 661.9,1131.5 660.9,1133.4 661.1,1135.4 662.7,1140.5 663.5,1144.4 
	665.4,1147 666.1,1148.9 666.2,1150.9 665.8,1152.4 664.8,1153.2 661.9,1153.7 660.8,1154.2 660.1,1155.1 "/>
<polyline class="st2" points="227.9,846.6 232.1,846.4 233.9,846.9 235.4,848 236.9,849.7 238.4,851 240.3,851.2 242.2,851 
	243.9,851.5 245.4,852.8 246.9,854.6 248.1,856.5 248.7,858.1 248,859.4 245.8,860.9 243.8,862.6 243.6,864.5 244.5,866 
	246.5,867.8 249,872.8 250.6,874.8 250.9,876.3 251.4,877.8 253.9,880.2 254.5,882.2 254.9,884.4 255.5,886 255.5,887.3 
	253.3,891.1 252.9,893.5 252.3,895.5 250.7,896.9 248.5,897.5 246.6,897.4 245,896.4 242.2,892.9 240.4,892.4 238.8,893.1 
	236.6,895.1 233.3,896 231.9,896.8 230.6,898.5 229,901.1 227.7,903.9 227.3,906 226.5,907.6 224.5,909.4 221.9,910.3 219.6,909.7 
	217.5,908.5 215.1,908 211.8,908.4 207.4,909.5 203.5,911.3 201.4,912.9 200.9,914.5 201,917.6 200.6,919.7 200.3,922.1 201,927.5 
	201,929.7 201.1,931.4 202,932.8 203.5,933.6 205.1,933.6 207.1,934.1 212.8,938 218.1,940.1 220.6,942.1 222.4,942.7 224.3,944.8 
	225.6,945.4 226.7,948.7 227.5,950.3 228.1,952.8 "/>
<polyline class="st2" points="428.6,1029.9 427.4,1031.8 426,1033.1 424.5,1033.8 423.4,1035.1 423.2,1038.1 424,1041.6 
	425.3,1044.4 427.5,1046.2 432.7,1048.8 434.3,1050.6 436.8,1051.3 439.5,1053 441.9,1053.8 444.1,1055 445.3,1057 445.6,1059.7 
	445.7,1062.7 446,1065.2 446.9,1066.8 450.2,1069.8 451.6,1071.8 452.4,1073.7 452.3,1075.1 451,1077.3 450.6,1078.7 449.9,1080.2 
	448.1,1081.3 445.9,1081.9 442.7,1082 441.1,1082.3 439.5,1084 437,1090.2 435.4,1091.5 433.6,1091.1 430.2,1089.1 428.7,1088.9 
	427.2,1088.3 423.6,1083.5 419.7,1079.3 418.2,1076.1 416.9,1074.2 411.8,1069.9 410.3,1066.3 406,1060.6 404.1,1056.4 
	402.8,1052.3 402.3,1049.1 401.3,1047 399,1045.2 396.1,1044.1 391.6,1043.2 389.9,1042.5 388.8,1040.8 388.5,1038.1 388.3,1034.9 
	387.5,1028.8 387.6,1025.8 388.5,1023.8 392.4,1022.7 395.2,1020.7 397.5,1018.5 399,1017.5 399.8,1016 400.5,1012.6 400.9,1008.8 
	400.9,1006.3 400.4,1005.3 398.8,1004.1 398.1,1002.1 397.1,999.8 "/>
<polyline class="st2" points="308.1,1199.4 307.9,1200.5 308.4,1201.9 309.8,1203.8 311.5,1205.3 312.7,1205.7 313.8,1205.7 
	315.3,1206.4 316.7,1207.6 317.7,1209.2 317.6,1210.7 315.2,1212.2 314.9,1213.4 316,1215.1 318.1,1217 319.9,1219.2 320.2,1221.9 
	320.1,1224.2 320.8,1225.6 321.8,1226.6 322.7,1229.8 324.7,1234.7 325.2,1237.4 326,1238.3 327.9,1238.9 330.9,1239.1 
	333.7,1238.8 335.4,1238.1 336.1,1236.8 336.6,1235.1 336.8,1232.9 336.8,1230.8 337.4,1229.1 338.9,1228.3 340.8,1227.8 
	343.5,1226.1 350.2,1224.1 351.9,1224.2 356.5,1227.1 360.1,1228.4 361.4,1230.5 364.1,1232.5 365.9,1235.9 367.2,1236.6 
	368.1,1237.9 368.3,1241 368,1244.6 367.6,1247.1 367.7,1248.3 369.6,1249.7 370.1,1250.8 369.5,1252.6 368,1255.1 "/>
<polyline class="st2" points="418,1224.6 421.1,1220.8 423,1217.6 423.3,1215.2 422.7,1213.1 421.9,1208.3 421.2,1205.7 
	421.6,1202.1 421.4,1199.3 422.7,1197.2 422.9,1195.4 422.8,1193.7 422.4,1192.5 420.9,1192.4 414.9,1193.5 410.3,1192.7 
	407.7,1192.9 400.4,1193.8 395.6,1195.1 392.3,1195 390.3,1196.6 388.4,1196.5 383.8,1195.6 380,1191.6 377.6,1190.7 374.9,1190.9 
	369.4,1193 368.8,1192.6 368.3,1191.8 366.1,1190.3 365.2,1189.3 363.7,1188.5 358.7,1188 357,1187.1 355.7,1185.9 352.6,1184 
	351.5,1182.7 351,1181.2 351,1178.8 350,1175.6 349.8,1173.3 350.5,1171.3 353.6,1169.7 354.1,1168.6 353.5,1167.5 351.4,1166.3 
	350.2,1165 348.9,1163 347.4,1160.6 346.4,1158.1 346.1,1156.1 345.6,1154.4 344.2,1152.8 341.8,1152.2 338.9,1153 336.7,1154.8 
	335.4,1157.4 333.5,1158.5 330.8,1159 328,1158.9 323.7,1157.6 322.3,1157.7 320.4,1157.3 318.3,1155.9 316.6,1153.5 314.5,1148.3 
	311.4,1145 309.2,1141.6 307.2,1139.8 306,1136 304.6,1134.5 303.1,1133.2 302.1,1132.1 302.3,1130.4 303.4,1128.1 304.6,1124.9 
	304.8,1121.1 304.8,1117.5 305.9,1113.1 305.7,1110.8 305.3,1108.2 305.3,1105.9 306.1,1104.2 307.5,1103.4 308.8,1102.1 
	309.5,1099.3 309.6,1096.5 309.2,1095.4 308.6,1094.5 307.9,1092 307.4,1089.2 307.5,1087.5 309,1086.8 312.1,1086.4 315.3,1086.7 
	317.1,1087.6 318,1088.6 319,1089.1 320.1,1088.2 322,1083.9 324.2,1081.7 325,1076.8 326.2,1074.2 326.4,1070.2 327.4,1067.9 
	327.3,1064.6 328,1061.5 327.7,1056.8 328.4,1054.8 329.2,1053 329.4,1051.4 329.1,1050.2 327.5,1048.7 327,1047.3 327,1044.8 
	327.4,1041.4 328.3,1038 329.3,1035.6 330.8,1033.9 334.7,1031.3 336.4,1028.9 338.5,1027.2 338.8,1026.1 339.2,1025.1 
	342.2,1023.8 344.7,1021.4 346.6,1020.2 347.6,1018.6 348.2,1016.5 348.3,1014.5 347.5,1012.9 345.8,1011.8 343.9,1010.8 "/>
<polyline class="st2" points="371.9,941.5 371.9,940.4 371.5,939.5 369.3,938.2 368.9,936.7 369.9,935 372.1,933.4 374.5,933.1 
	375.9,934.4 376.3,936.6 376.3,938.7 376.7,940.5 378,942 380,942.5 382,942.1 383.9,941 389.9,938.7 393,938.1 395.3,938.1 
	396.6,938.7 397.7,938.7 399.9,937.4 402.2,935.2 403.6,933.3 404.1,931.2 404.3,928.6 404,926.3 402.3,923 401.3,919.6 
	401.1,916.2 401.7,914.5 403.3,914.4 405.2,914.8 409.1,917.1 411.1,917.9 415.9,917.5 419.1,917.6 419.7,916.5 420.4,914.8 
	422.6,911.8 423.9,908.1 425.6,906.1 427.6,905.3 428.9,906.6 430,908.5 433.1,909.9 434.9,911.3 435.9,913.2 435.8,914.5 
	435.2,915.7 435,917.1 435.8,918.4 439.5,920.2 439.7,921.3 439.1,923 438.8,925.1 438.8,927.3 439.1,929.2 440,930.5 443,933.2 
	444.4,935.7 445.2,939.3 445.1,943.4 444.4,946.7 443.8,948.5 443.7,949.5 444.2,951 445.4,952.2 448,953 448.5,954.3 447.9,956.1 
	446.3,957.7 444.7,959.6 444.2,962.3 444.3,965.1 444,969.8 444.3,972.4 444.3,974.8 443.3,976.3 442.2,977.7 441.9,979.4 
	442.1,981.4 "/>
<polyline class="st2" points="-15.6,840.5 -16.6,838.7 -17.7,837.4 -18.8,836.9 "/>
<polyline class="st2" points="210.8,1226.4 211.9,1226 212.7,1225.3 213,1224.4 212.4,1223.1 211.1,1221.7 209.3,1220.6 
	205.5,1219.7 201.9,1215.7 199.1,1213.3 196,1211.7 193.6,1211.3 192.4,1212.4 192.4,1214.3 193.4,1216.2 194.3,1217.6 
	195.3,1218.3 197.2,1218.6 198.4,1219.5 201.2,1223.2 202.2,1225.4 202.6,1227.2 202.8,1229.1 203.4,1231.5 204.5,1233.8 
	208.4,1239.3 210.6,1242.6 "/>
<polyline class="st2" points="490.3,1112.3 489.3,1114.4 488.8,1116.2 488.8,1117.6 490,1118.3 492.3,1118.4 494.6,1117.5 
	495.9,1115.9 496.7,1114.3 499.3,1112.2 501,1109.1 501.6,1109.1 501.9,1110.5 502.1,1112.6 502.5,1114.6 503.6,1115.8 
	504.8,1115.8 506.6,1114 509.4,1113.2 510.8,1111.2 512.7,1109.7 515.2,1108.5 518.7,1107.4 520,1106.7 521.8,1106.1 526.6,1106.1 
	529.5,1103.9 534.7,1102.3 535.8,1101.4 536.4,1100.6 537.8,1099.9 539.4,1099.6 540.6,1099.7 542,1099.3 544.1,1097.6 
	546.3,1095.3 548.8,1091.9 552.1,1089.2 553.3,1087.5 554,1085.6 554.2,1083.7 553.9,1081.8 553.2,1079.8 553.2,1078.2 
	554.6,1077.1 556.4,1076.2 557.2,1074.9 557.6,1073.8 558.4,1073.3 559.5,1073.4 560.5,1074.2 561.4,1074.4 562.3,1073.3 
	562.8,1071.2 562.8,1069.2 562.1,1067.5 559.1,1064.7 555.7,1059.5 551.9,1056.3 550.9,1053.9 550.4,1051.2 549.6,1049 
	549.7,1047.6 553.1,1046.1 553.9,1044.5 554.2,1042.9 555.3,1041.2 555.5,1038.7 556.5,1036 556.7,1034.4 556.3,1033.1 
	555.6,1032.1 554.3,1032 "/>
<polyline class="st2" points="1288.3,83.8 1283.9,86.1 1280.7,86.3 1270.5,84.4 1262.2,86.8 1261.8,86.5 1260.8,84.4 1259.4,82.3 
	1258.8,80.7 1258.6,80 1258,78.4 1256.4,75.4 1254.9,73.3 1253.4,71.9 1253,71.2 1252.9,70.4 1253,69.5 1255.5,59 1255.6,58 
	1255.4,57.1 1253.4,50 1253.3,49.2 1253.2,48.3 1253.2,45.1 1253.1,42.5 1253.1,41.7 1252.9,40.9 1252.3,38.7 1251.9,36.7 
	1251.9,35.4 1252,34.3 1252.2,33.4 1253.1,29.8 1253.4,29 1253.8,28.3 1255.1,27.6 1255.6,26.7 1255.9,25.5 1256.5,22.6 
	1256.9,21.5 1260.1,15.1 1260.7,13.2 1260.9,11.7 1261,9.8 1261.1,8.7 1261.3,7.6 1263.7,2.9 1264.4,1.2 1265,0.1 "/>
<polyline class="st2" points="350.3,471.8 353.3,472.7 354.5,475.3 361,477.5 361.3,478.9 359,482.2 359.3,483.4 360.5,483.8 
	363,482.6 372,480.2 376.1,483.5 378,483.6 385.3,479.5 387.8,479.1 392.2,480.2 398.4,480.3 398.9,481.6 399.4,485.7 400.6,486.8 
	402.1,486.9 404.5,485.3 408.1,480.5 410.7,480.1 414.9,481 418.9,482.9 421.2,482.8 422.9,479.8 "/>
<polyline class="st2" points="391.1,293 388.5,296.5 387.5,298.6 382.7,303.4 379.9,304.5 371.3,310.9 368.9,311.1 363.4,310.2 
	358.9,312 357.2,313.4 355.8,312.7 354.1,313.7 351.8,313.9 350,314.7 348.2,316.4 346.3,320.2 345,321.1 343.5,320.9 341.2,319.1 
	336.3,321.2 333.7,323.2 332.5,322 331.3,321.7 327.9,323.3 325.9,322.4 325.1,323.1 324.4,325.9 322.7,329.3 322.8,332 
	323.5,334.4 329.4,340.4 332.8,342.7 334.9,345.2 336.6,348.1 337.3,350.7 337,352.6 335.7,355.3 335.9,356.9 337,358.1 
	339.5,359.6 341.4,370.7 344.5,372.3 345.7,371.2 346.7,371.2 349.4,374 354.6,376.2 357.6,380.8 359.1,381 360.1,383.7 
	361.8,385.4 362.6,387.1 362.2,389.6 358,395.4 357.4,398.1 357.3,400.2 356.6,401.7 355.3,402.2 352.4,401.7 350.7,402.8 
	349.4,405.3 348.8,408.8 348.9,412.1 349.3,415.8 349,417.2 349.7,418.2 350.9,418 351.9,418.7 353.2,427.2 354.5,431.4 
	354.4,434.5 355.3,436.4 356.6,437.7 358.4,437.6 360.1,439.5 362.8,439 364.2,439.6 364.9,441.8 364.5,451 363.9,452 356.8,453.9 
	355.1,455 354,457.5 351,458.6 350.9,459.4 351.9,461.5 352.1,462.7 350,469 349.6,470.9 350.3,471.8 "/>
<polyline class="st2" points="301.7,551.8 303,563.1 303.8,565.8 305.8,569.7 309,570.1 313.6,567.5 315,568 316.5,569.8 
	317.7,572.6 319.1,578.9 320.3,581.3 333.9,590 335,592 336.2,592.2 340.7,590.3 343,588.4 345.3,584.7 346.5,584.4 347.5,585 
	348.3,586.8 349.3,587.8 350.7,587.8 353.6,584.8 359.4,581.5 360.8,581.3 362,582.1 364.7,585.2 367.2,586.5 377.8,587.4 
	380.7,586.1 382.8,583.9 383.3,581.7 382.9,579.6 382.9,575.9 382.2,574.3 379.6,572.3 378.4,572.4 375.8,574.6 374.7,574.7 
	371.8,573.2 371.7,571.5 372.8,566.2 372.7,564.4 373.3,563.8 377.3,566 380.1,565.4 381.9,566 383.8,565.8 385.8,564.9 
	387.9,562.2 388.9,561.9 394.4,560.9 402.5,560.6 404.3,559.5 405.7,555.7 406.9,554.3 409.2,553.6 410.2,552 412.9,550 
	413.8,548.1 414,545.9 413.9,543.9 413.4,542.4 411.5,540.5 409.4,532.9 409.2,530.1 410.6,525 410.4,522.6 409.3,521 407.1,520.5 
	406.6,519.7 406.9,518.7 408.7,517.4 408.8,516.2 405.5,508.1 404.3,503.7 402.1,500.7 401.9,498.4 403,496.8 406.7,497.1 
	408.2,496.3 411.9,493.2 413.9,489.9 414.7,489.5 415,490.4 415.3,493.4 416,493.7 418.8,489.1 420.6,488.7 423.5,487.1 426,484.6 
	"/>
<polyline class="st2" points="241.9,528.1 242.4,523.9 242.4,521.5 244.1,517.8 244.5,515.7 244.1,514.3 242.7,513 243.5,508.4 
	243.8,505.3 244.7,504.2 248.6,503.1 250.6,503.7 252.7,506.5 254.1,507 255.3,506.5 255.9,505.2 255.7,503.6 255.1,502.4 
	251.2,500.9 250.1,499.2 248.5,498.1 247.8,496.5 247.6,494.1 247.9,491.3 249.7,486 255.3,476.9 255.1,475.1 253.6,473 
	251.6,471.5 249.1,470.5 247.7,466 246.6,463.2 245.4,458.6 243.9,456.1 244.9,451.9 245,450.4 243.3,448.7 237.9,448 236.3,446.1 
	234.7,442.9 233.9,439.7 234.7,438 238.7,435.5 240.6,435.1 246.9,435.8 253.3,433.7 262.6,435.3 266,435 270.7,433.4 276,434.5 
	278.4,434.3 281.7,431.8 283.5,431.4 285.2,432 289.1,436.4 290.7,436.9 292.8,435.6 295.6,437.3 297.6,437.6 299.3,439.2 
	299.8,443.4 300.1,447.8 301,450.1 302.2,451.4 304.1,455.3 305.1,456.3 306,456.1 307.5,454 308.5,453.4 310,453.7 313.1,456 
	313.8,458.2 316.1,458.9 317.5,461.7 318.3,462.5 323.8,462.5 326.6,463.8 329,466.7 329.6,468.9 330.3,470.2 333.9,471.9 
	335.1,477.6 336,479 342.3,477.9 345,479.8 346.3,479.9 348.1,478.7 350.3,471.8 "/>
<polyline class="st2" points="280.5,432 280,431.1 280,429.7 280.6,427.7 280.8,425.5 279.5,423.8 275.5,422.8 274.1,420.8 
	272.8,420.6 271.9,419.6 271,417.5 269.5,411.8 268.3,409.5 267.7,407.2 268.8,401.2 268.7,398.7 267.9,397 265.9,394.8 265.2,391 
	264.4,389.1 261.2,385.9 259.8,383.4 253.4,378.8 252.3,376.5 252.3,373.1 253.7,369.5 254.5,365.6 "/>
<polyline class="st2" points="669.1,284.6 669.2,282.7 672.5,278.9 672.7,276.3 672.2,273 672.2,269.5 671.9,267 669.5,265.6 
	669.3,264.1 669.5,262.4 669.2,261.2 665.8,261 662.8,256.1 661.6,255.9 658.4,258.2 657.6,257 656.8,254.6 655.4,252.3 
	651.1,251.6 650.4,250.8 650.2,249.7 649.2,247.5 650,237.9 651.4,236.9 651.9,234.1 653.2,230.1 653.4,227 653,222.1 651.2,220.7 
	650.5,217.9 650.5,214.1 651.4,211 652.8,209.1 654.2,208 654.7,204.6 655.9,202.6 661.2,199.5 661.6,196.9 661.5,194 661.7,192 
	662.4,191.1 666.2,189.3 667.5,187.8 668.9,184.9 672.4,182.9 "/>
<polyline class="st2" points="687,341.8 687.5,336.4 688.8,334.8 690.4,333.9 694.6,333.7 695.9,332 695,331.3 690.7,330.1 
	689.8,328.9 690.9,324.6 691.2,321.8 688.6,316.4 687.9,313.8 687.9,311.9 688.3,310.9 692.2,312.3 693.6,309.9 694.2,307.9 
	693.2,306.8 693.2,304.5 693.5,301.4 693.2,298.7 691.9,296.3 689.9,293.9 687.3,292.2 684.6,291.2 682.3,291.4 679.6,292.8 
	677.2,290.5 674.3,293.6 672.7,293.6 671.3,292.2 669.1,284.6 "/>
<polyline class="st2" points="744.4,183.2 739.6,182.3 736.6,182.7 731.2,185.5 727.1,188.9 725.9,190.7 725.2,194.1 724.3,195.7 
	717.9,199.5 712.6,205 709.6,206.6 708.6,207.7 708.2,209.2 708.1,210.6 708.7,212 711.7,216.1 713.5,220.1 714.7,223.9 
	715.1,226.1 711.7,230.3 712.2,234.8 710.9,238.6 710.9,242 708.2,249.1 708.9,250.9 716.3,258.4 720.1,259.3 722,260.4 
	723.8,262.6 725.8,265.5 727.2,268.9 728.1,274.5 730.3,278.1 730.5,281.1 730,284.2 728.9,287.7 728.8,289.1 727.9,290.9 
	725.6,293.4 722.7,295.1 716.4,294.5 712.7,295.9 712,297.5 712.2,300.1 713.8,308 714.4,316.6 715.5,317.9 720.1,318.6 722.5,321 
	725,321.5 730.3,324.1 736.9,324.6 739.6,329.7 742.1,337.1 743.4,339.6 745.7,341.4 748.3,342 752.3,341.6 754,342.7 754.5,344.5 
	751.4,349.3 748.9,354.1 747.3,359.5 747.3,363.9 747.9,367.2 748,369.9 746,378.2 744.1,383.4 740.6,389.9 740.8,392.3 
	742.1,394.4 742.8,398.2 742.8,401.7 743,408.8 "/>
<line class="st2" x1="745.5" y1="181.9" x2="744.4" y2="183.2"/>
<polyline class="st2" points="973.8,181.5 973.3,183.4 972,185 965.2,188.4 963.4,190.5 962.2,192.8 962.1,194.7 965.6,201.3 
	970.4,205.9 971.5,207.6 971.3,208.7 969.7,210.4 967.7,213.9 962,220 959.4,220 957.6,222.3 955.7,223 954,222.6 953,220.1 
	951.9,219.7 942.8,218.2 939.6,218.7 932.2,223.3 927.6,224.5 924.4,227.5 922.2,228.1 918.8,230.1 917.9,231.1 918.1,232.2 
	919,233.7 919.5,235.5 918.7,237.5 917.6,239.4 917,241.6 915.4,242.1 914.6,246.4 910.3,248.5 910,252 908.9,253.9 907.4,254.9 
	903.1,253.6 901.4,253.8 900.2,254.6 898.6,258.4 894.9,260.5 892.2,262.9 888.1,264.3 885.1,270.7 883.6,272.5 878.5,275.4 
	872.6,281.3 871,286.2 868.7,289.6 868.4,290.9 869.6,292.1 874.3,294.5 877,297.8 880,299 881.7,300.6 881.5,308.9 "/>
<polyline class="st2" points="1223.5,4 1222.4,5.2 1220.7,4.4 1219.7,4.3 1218.6,4.6 1216.3,6.7 1212.1,8.5 1206.7,12.5 
	1205.4,13.8 1204.6,15 1203.1,18 1202.9,19 1202.8,19.9 1203,21.6 1203.3,23.2 1203.5,24 1203.9,24.7 1204.5,25.4 1204.7,26.2 
	1204.3,28.9 1204.2,29.8 1204.3,30.6 1204.3,31.4 1204.5,32.2 1205.3,35.4 1205.3,36.3 1205.3,37.1 1205.1,38.1 1205.2,38.8 
	1205.1,39.5 1204.5,39.8 1203.5,39.8 1199.8,38.7 1198.9,38.9 1198,39.4 1193.2,43.7 1193,44.5 1193.1,45.2 1193.4,45.8 
	1193.5,46.5 1192.8,48.4 1192.3,50.1 1192.1,50.7 1190.3,51.4 1189.1,52.3 1176.6,58.4 1175.9,59.5 1173.6,62.1 1167.2,66 
	1162.8,66.7 1162,67.3 1161.2,68.5 1160.4,68.2 1158.6,67.4 1155.6,68.7 1153.4,72.6 1151.9,76.6 1151.7,81.8 1153.4,86.4 
	1155.4,87.7 1157.8,91 1159.6,94.3 1162.5,100.2 1163.5,100.8 1166.3,96.6 1168.1,92.8 1168.3,92 1169.5,91.4 1170.9,89.1 
	1173.6,89.1 1176.1,89.1 1179.3,90.4 1182,90.4 1184.9,91.7 1187.6,92.3 1191.8,93.6 1194.5,94.3 1198,92.3 1199.5,88.4 "/>
<polyline class="st2" points="1241.2,250 1239,249.2 1235.2,247.6 1230.2,246.2 1229.5,243.9 1231,241.3 1231.6,239.4 1230.9,235.9 
	1230,234.6 1227.4,233.8 1222.6,230.7 1219,230.6 1214.7,229.3 1212.9,230.2 1208.1,234.3 1203.7,235 1200.8,236.3 1194.2,236.1 
	1189.2,233.7 1182,231.5 1177.5,227.9 "/>
<polyline class="st2" points="1115.3,225.2 1112.1,222.3 1109.8,218.5 1104.2,213.9 1103.9,209.5 1100,201.8 1099.5,198.9 
	1099.5,186.2 1100.6,183.8 1099.8,177.9 1100.1,176.3 1100.9,175.1 1102.3,174.6 1106.1,175 1108.6,173.7 "/>
<polyline class="st2" points="960.7,314.8 963.7,310.7 964.9,309.4 966.4,306.2 968.2,304.8 970.5,301.3 971.9,302.2 974.1,301 
	976,300.9 981.2,303.1 982.6,302.8 984.6,300.4 985,298.8 984.9,297 985.4,295.2 992.6,290.7 994.7,288.9 995.7,287.4 995.6,286.1 
	994,283.8 994.1,279.7 994.3,278.4 996.5,276.1 996.9,274.2 997.1,271.9 998,267.8 997.2,264 999.5,259.2 1000.3,256.3 1003.4,255 
	1005.5,252.3 1007.5,252.5 1008.3,251.3 1009,247.6 1010.2,245.3 1010.2,243.5 1009.5,240.7 1009.6,238.2 1010.4,236.9 
	1011.1,236.3 1012,235.7 1013.6,235 1015.8,235 1021.8,236.3 1024.1,235.6 1025.3,234.6 1025.9,234 1026.2,233.3 1026.7,231.7 
	1027.4,229.9 1027.8,229 1027.9,228.1 1028.1,226.4 1028.5,225.5 1029.2,224.6 1034.7,220.1 1035.1,219.5 1035.5,218.7 1036,217.8 
	1036.1,215.1 1035.2,214.1 1035.1,211.7 1035.6,209.7 1036.6,208 1037.6,206.8 1038.9,204.3 1040.4,204.2 1041.6,202 1045,199.9 
	1048.2,196 1052.3,192.5 1052.9,191.2 1052.9,189.5 1053.4,186.9 1054.3,184.7 1056.3,183.5 1057.7,178.8 1059.1,177.1 
	1062.9,175.1 1065,171.4 1066.7,170.2 1083.7,170.3 1084.8,168.7 1085.3,166.3 1086.8,161.7 1087.1,159.7 1086.9,157.9 "/>
<polyline class="st2" points="875.5,428.4 874.2,429.2 872.4,428.9 871.4,430.9 867.6,432.5 865.9,433.9 865.2,435.6 865.8,438.4 
	865.7,440.1 864.7,442 861,446.6 859.6,449 858.2,454.7 855.7,457.5 855.5,459.9 853.9,463.1 851.8,469.9 849.4,474.9 848.8,477.6 
	845.2,481.1 843.9,483.4 843.6,485.6 844.2,487.5 846.2,491.2 847.5,495.8 849,498.7 849.3,500.2 848.9,501.7 847.5,504.2 
	847.9,507.7 845.8,516.3 844.9,519.5 840.2,530.5 840.6,535.8 841.5,538.8 842.8,540.6 844.6,541.2 854.4,543.6 859,542.7 "/>
<polyline class="st2" points="963.8,550.9 963,547.8 962.9,546.1 965.2,541.7 966.9,539.4 969.1,537.9 971.1,535.6 973,528.8 
	974.7,524.9 978,520.8 982.6,509.6 983.1,506.4 982.9,503.3 982.3,500.6 981.2,498.5 980.1,496.9 975.9,494.1 967.7,490.9 
	966.2,488.9 965.5,486.9 964,485.6 962.6,482.1 958.3,477.1 956.9,474.7 955.4,473.6 950.6,474.6 949.2,473.6 947.1,468.7 
	947,465.4 945.8,463.3 945.6,462.3 947.7,459.3 948.7,453.1 948.9,450 948.4,447 947.2,445 945.8,444.1 942.4,445.7 936.7,446.9 
	928.9,451.5 924.9,453.2 922.1,453.7 921,453.3 920.3,451.8 914,444.7 912.3,444.5 905.5,446.1 904.3,443.7 900.9,442.1 898.3,438 
	896.7,436.8 886.2,432.3 882.2,429.1 880.4,428.6 878,429.4 875.5,428.4 "/>
<polyline class="st2" points="909.8,346 911.9,350.5 912.9,353.5 912.5,355.5 909.6,358.2 908.7,360 909.2,361.6 911.9,365.5 
	912.3,367.3 912.3,368.8 913.2,372.4 913.2,375.4 912.7,378.2 911.9,379.8 908.9,380.5 908.5,381.5 909.2,385.4 909.2,387.8 
	905.8,394 902.3,396.7 897.4,406.7 895.6,408.2 890.4,411 880.8,418.4 876.6,423.2 875.5,425.3 875.1,426.8 875.2,427.8 "/>
<polyline class="st2" points="848.6,783.9 845.5,782.2 844.6,780.7 844.2,778.9 844.5,775.6 844.5,773.1 845.1,771.3 845.2,769.1 
	844,764.2 839,761.6 836.5,760.8 832,759.9 823.6,750 821.7,748.8 815.6,747.8 813.8,746.5 812.5,744.5 811.3,739.7 810.2,736.9 
	806.6,730.9 805.3,727.8 803,724.7 802.7,723.2 802.7,719.9 802.1,718.5 800.4,717.3 799.7,715.7 799.4,713.9 799.5,712 
	798.9,710.8 796.6,709.3 795.1,709.6 791.9,711.2 790,713.2 786.5,713.6 785.5,713.2 784.9,706.5 783.7,704.4 782,703.3 779.5,703 
	777.7,701.6 775.5,702.8 772.3,701.5 767.1,700.4 765.9,701 763.8,701.4 "/>
<polyline class="st2" points="739,886.6 736.9,886.5 735.5,887.4 735.5,888.8 736.1,890.8 736.4,893.1 736.1,895 735.3,896.2 
	732.5,897.1 730.7,896.6 726.8,893.7 725.7,893.5 725.5,894.7 726,899.5 725.2,901.3 724,902.1 718,901.6 711.7,902.7 "/>
<polyline class="st2" points="804.8,752.1 805.4,754.7 805.6,757.5 804.9,767.1 804.7,769.2 803,772.3 802.7,774.5 804,783.4 
	803.6,785.9 804.4,788.4 804,791.6 804.2,795.1 802.8,797.3 802.4,799.7 802.7,802.3 804.5,805.1 804.4,810.4 804.8,812.4 
	805.8,815.2 805.7,817.4 807.1,825.1 807.6,826.5 808.5,827.3 809.7,827.9 811.8,827.4 817.7,823.7 819.9,821.1 823.4,819.9 
	825.1,820 826.1,820.6 827,822 830.6,823.7 832,825.9 832.9,829.7 829.8,832.3 827.8,840.7 827.7,842.5 828.2,844.5 830.4,848.4 
	831.6,851.5 835,853.8 835.8,855.3 836.3,858.9 837.7,861 838.4,863.9 839.6,866.6 839.9,871 842.2,874.6 843.3,879.3 844.1,881 
	849.7,886.5 853.1,892.3 856.2,895.9 854.1,898.7 853.5,900.1 853.6,907.3 852.7,908.9 847.7,911 843.9,911.8 836,912 831.9,914.3 
	829.8,914.9 827.8,914.7 823.1,911.4 821.1,907.2 819.7,905.4 818.1,904.6 814.8,905.2 808.7,903.8 808.2,902 807.9,898 
	806.3,895.9 804.7,895.8 799.7,897.3 797.1,896.8 792.1,892.8 787.4,893.6 785.7,893.4 785.2,892.1 786,888.1 785.9,886.7 
	781.3,883.4 777,882.2 771.9,882.4 768.5,886.1 765.5,887.7 762.2,888.4 758.7,887.8 756.5,889.7 752.3,891.2 751.3,891.1 
	751.4,886.6 750.6,884.7 749.2,884.2 746.3,887.7 744.3,888.6 742.4,888.4 739,886.6 "/>
<polyline class="st2" points="684.4,887.2 686.5,889.2 687.9,892.5 690.1,898.8 689.9,901.2 685.9,906.2 685.4,907.8 685.4,908.8 
	682.2,914.3 681.1,917.4 680.5,923.7 679.5,926.1 678,928.1 675.7,927.5 675.1,926.8 673.3,926.3 672,924 670.9,924.5 668.7,925.1 
	667.4,927 665.9,927.6 664.9,929.6 664.8,931.5 663.9,933.9 663.9,934.6 665,935.5 665.8,937.5 666.3,938 666,939.9 665,940 
	664.3,940.5 664.1,942 663.9,944.9 661.9,948.1 661.9,949.7 661.9,952.3 662.9,954.4 665,957.3 665.9,959.7 666.7,962.1 
	667.7,963.9 667.2,965.5 665.9,966.8 663.4,967.9 661.1,968.4 659.6,969.4 657.2,970.7 655.4,971 653.3,971.8 651.7,972.8 
	649.2,974.2 647.3,974.7 645.9,974.9 "/>
<polyline class="st2" points="680.8,876 679.9,880.2 680,882 680.5,883.7 681.1,885 684.4,887.2 "/>
<polyline class="st2" points="722.2,714.2 720.4,711.8 716.3,707.8 715.3,706.7 714.2,703.5 709.8,702.8 708.3,701.5 706.7,697.3 
	705.7,695.9 704.7,695.8 702.5,697.3 700.6,697.1 694.9,693.2 690.9,694 688.7,692.8 686.4,692.8 679.1,691.1 677.2,689.8 
	669.8,689.8 664.9,691.8 658.2,691.7 656,692.5 654.8,691.2 652.9,691.5 651.7,691 650.3,688.8 648.7,687.6 637.2,685 635.5,683.6 
	634,681.7 631.4,677.5 626.9,673.3 624.3,669.8 622.3,668.4 617,666.7 614.5,664.2 612.6,661.2 612.5,659.4 612.9,657.8 
	612.6,655.1 611.8,652.7 611.1,651.5 610.4,651.2 "/>
<polyline class="st2" points="616.5,503.8 620.6,507.2 633.9,512.4 638.7,511 645.5,511 652.1,508.9 656.8,508.3 660,506.3 
	666.7,503.8 670.3,501.4 673,498.1 674.2,494.4 674.1,491.4 672.9,488.9 672.9,487.5 672.4,486.1 668.9,483.9 668,481.1 665,477.3 
	662.8,478 660.1,478 657.2,477.6 655,476.1 651.7,475.6 649.4,472.9 649.4,471.1 649.7,469.3 651.6,465.7 652.4,462.5 653.4,460.5 
	658.7,453.6 662.5,449.3 671.8,440.7 676.3,439.3 678.5,440.6 680,440.9 681.7,440.3 683,439.1 684.1,435.4 685.3,435 686.4,435.7 
	686.9,439.3 688.1,440.3 693.4,438.4 696.7,439.4 699.6,441.3 704,445.9 706.3,446.9 708.1,446.8 709.3,445.6 710,444 710.4,442 
	711.2,438.9 "/>
<polyline class="st2" points="684.4,887.2 682.1,888 679.6,889.7 675.3,888.2 672.3,885.2 668.4,886.2 666.1,883 663.3,881.1 
	661.8,879.2 660.8,876.7 660.4,872.9 656.6,871.3 654.1,872.5 652.1,871.8 650,873.2 645.8,873.6 637.5,875.7 634.6,878.1 
	629.5,878.3 626.3,880.9 623.6,881.1 619.6,880.3 615.9,881.4 614.5,881.1 613.7,879.1 613.8,875.6 614.6,871.9 616.3,866.9 
	616.7,864 616.8,860.8 "/>
<polyline class="st2" points="805.9,645.7 804.9,648.3 800.7,653.4 799.7,655.2 799.8,658.4 799.6,660 798.6,661.3 797,661.8 
	794,661 780.6,662.9 778.3,663.6 776.2,665.1 769.9,661.3 768,659.2 767.4,657.4 "/>
<polyline class="st2" points="891.7,600.7 887.4,598.4 879.6,597.2 869,600.4 863.5,600.5 860.4,602.6 855.4,603.7 850.4,606.9 
	846.9,610.8 844.6,611 838.8,608.1 836.5,607.9 834.1,608.8 832.2,610.5 830.1,614.3 828.8,616 822.8,620.5 816.1,626.7 
	812.5,629.3 810.4,635.4 807,641.1 805.9,645.7 "/>
<polyline class="st2" points="693.2,550.9 692.5,552.2 692.4,554.5 692.8,560.5 692.5,565.8 693.5,574.9 692.9,578.8 691.5,581.1 
	688.4,582.6 687.5,586.1 685.4,588.5 682.5,590.8 672,593.3 667,593.3 665.1,594.1 661.7,597 658.6,598.9 657.5,600.3 656.2,606 
	656,609.8 656.1,617.1 655.3,619.4 650.5,623.9 649.4,626.4 642.8,626.3 637.9,628.4 636.3,629.6 635.3,630.9 635.2,632.2 
	635.7,633.4 635.8,635.3 634.8,638.2 630.3,645.3 628.8,649.9 626,655.1 "/>
<polyline class="st2" points="730.1,525.8 727.7,527.2 725.3,531.4 722.7,533.7 719.5,535.4 716.8,536.3 714.9,536.2 711.4,533.3 
	709.2,533.2 706.1,533.9 703.8,535.1 703.5,536.4 705,539.5 704.9,541.1 704.5,542.8 703.5,544 700.6,545.5 693.2,550.9 "/>
<polyline class="st2" points="542,756.4 541.8,754.9 543,753.8 546.6,752.2 549.7,748.2 551.1,748.3 554.2,750.2 554.9,749.4 
	555.5,748 556.6,747 561.1,746.2 563.3,746.4 566.4,748.9 568,749.1 569.3,748 570,746.5 569.3,743.9 569.1,741.8 569.6,739.5 
	570.9,737.8 574.8,735.9 577.4,732.3 581.6,729.9 589.4,730.9 596.8,733 599.5,734.7 603.9,734.2 "/>
<polyline class="st2" points="546.9,769.3 546.9,767.5 545.8,762.6 545,760.4 542,756.4 "/>
<polyline class="st2" points="511.6,803.4 509.4,804.9 505,806.1 504,807.2 504.4,808.6 507.5,811.7 508.1,813.8 508.4,816.1 
	508.9,818.3 510.3,820 512.3,821.2 515.4,820.6 522.8,815.7 525.6,815 528.8,816.8 529.5,818 529.9,820.6 530.9,821.5 532.5,821.5 
	534.1,819.8 534.8,818.4 538.5,814.9 539.6,813 539.8,811.2 539.4,802.7 539.8,798.1 541.8,791.5 542.2,788.8 541.9,787.1 
	540.6,785.6 540.8,781.8 540.2,779.1 543,772.2 544,771 546.9,769.3 "/>
<polyline class="st2" points="512.3,664.6 511.6,669 513,672.2 513.1,673.3 511.5,674.1 508.5,674.4 506.5,677 507.6,683 
	510.7,689.2 513.6,692.2 517.5,694 518.1,695.1 518.1,697.9 518.9,700 524,706 525.9,711.1 527.7,714.7 528.1,717 527.4,719.1 
	523.7,720.8 522.8,721.7 523.3,723 525.4,726.7 525.8,728.7 525.2,730.5 522.9,734.4 522.2,736.6 522.5,738.8 523.6,740.6 
	525.5,741.8 531.8,745 533.5,746.7 534.2,748.6 534.2,750.5 535,752 536.4,753.7 538.3,754.2 539.9,755.1 542,756.4 "/>
<polyline class="st2" points="419.9,638.1 422.2,634.9 422.7,633 422.6,630.8 422.1,628.5 423.1,625.6 430.6,619 432.2,616.6 
	432.5,615 433.8,611.3 434.1,608 435,604.7 437,602.5 443.5,598.8 449.4,598.2 451.4,596.5 455.3,596.7 456.4,597.3 457.2,598.6 
	457.2,602.2 458.1,605 458.4,610.2 458.9,612 463.2,614.5 464.6,618.1 467.3,620.2 468.6,622 469.4,625.1 470,634 470.8,636.9 
	472.3,638.6 476,641.3 478,643.7 483.7,644.4 485.6,645.5 490.3,653.2 493.5,656.8 496.4,658.6 498.9,658.5 502.9,657.1 
	505.1,657.7 508.5,660.8 511.6,661.2 512.3,662.5 512.3,664.6 "/>
<polyline class="st2" points="528.2,556.1 527.3,561.6 526.5,566.3 526.7,574.3 523.4,576.6 520.6,577.6 515.8,578.1 511.1,582.4 
	506.9,584.3 504.3,586.1 501.8,589.4 499.7,593.3 497.1,599.6 497.2,602.1 497.5,605.1 500.9,609.9 501.5,611.7 501,613.4 
	498.9,618.1 499,620.2 499.6,622.2 500.3,627.4 501.7,631.2 503.9,634.7 506.4,637 509.3,637.9 517.3,638 519.3,640 519.7,641.3 
	519.9,642.7 518.9,644.3 513,648.7 513.3,650.5 515.7,656.5 515.5,658.3 514.7,659.6 514.2,661.4 512.3,664.6 "/>
<polyline class="st2" points="472.1,499.1 471.8,502.3 471.6,504.3 471.8,506 472.9,508.1 476.9,509.7 481.4,510.8 483.7,510.3 
	485.2,509.1 488.9,507.5 492.5,507.7 502.2,511.4 508,515.2 516.1,518.7 519.1,521.8 521.6,525.3 526.9,530.9 529.5,534.7 
	533.2,537.8 534.6,540.3 534.6,543.2 534.2,545.7 533.2,546.7 530.2,550.9 528.2,556.1 "/>
<polyline class="st2" points="552.8,375.1 554.5,375.4 556.1,376.4 557.3,376.7 558.8,377.6 558.8,379.7 558,381.2 557.2,383 
	556,384 554.5,385.5 553,387.6 552,390 550,390 547.3,390.3 546,391.2 543.4,393.7 542.3,396.7 539.8,398.2 537.8,397.9 535.3,397 
	533.7,394.9 532.8,391.2 530.6,387.9 528.7,386.1 527.7,385.5 526.9,382.7 526,380.3 525.3,378.8 524.2,378.8 523.8,377 
	523.1,374.8 522.1,374.8 520.7,375.1 519.6,374.8 517.9,373.3 515,372.7 513.4,371.5 511.2,371.2 509.1,369.6 507.4,368.7 
	505.8,368.4 504.1,367.8 503.2,367.2 501.7,366.6 500.3,367.2 499.2,368.1 497.7,368.7 496.6,368.1 496.1,365.7 495.2,364.2 
	493.4,363.2 491.5,362 489.9,362.9 488.8,363.2 487.1,363.5 485.8,362.6 484.5,360.5 482.3,360.8 480.8,359.9 479.3,358.7 
	478.2,356.5 476.7,356.2 474.8,356.5 474.1,354.4 471.1,353.1 468.5,350.4 467.2,348.9 466,348 464,347.5 461.5,347.1 458.7,345.8 
	456.4,346.2 454.1,346.6 452,349.3 450.8,351.9 450.2,355.9 449.2,358.5 447.6,358.9 446.5,357 "/>
<polyline class="st2" points="571.6,184 569.5,186.3 565.3,189.2 562.6,192.2 557.7,193.9 553.9,194 552.1,195 548.1,200.3 
	545.3,206.4 544.4,207.6 543.3,208.1 542.1,207.1 541,207.8 540.1,209.3 539.4,212.7 536,218.4 533.7,226.3 533.6,228.1 535,234.6 
	534.8,237.1 532.7,240.6 526.7,246.5 526.2,247.9 526.4,250.2 525.7,252.1 526.3,254.6 526.1,255.6 522.5,255.9 521.9,257.4 
	517.2,259.4 511.1,260.4 507.4,264.2 505.9,264.9 502.8,263.5 501.7,266.7 498.7,266.8 494.1,268.6 493.1,269.5 490.2,274.6 
	488.8,275.1 487.1,274.4 484,271.8 482.7,271.4 481.8,272.4 479.9,276.9 474.5,279.1 474.1,280.2 474,283 473.3,283.6 472.1,283 
	469.1,280.1 463.5,280.8 461.3,282.3 459.5,281.4 456.9,282.4 452,281.7 448.1,283.2 446.4,283 444.8,282.1 443.2,280.9 
	441.2,280.8 439.5,278.4 438.4,274.8 437.8,270.6 "/>
<polyline class="st2" points="768.9,760.4 770.8,763.3 772.7,766.2 773.5,770.7 773.8,775.3 772.9,779.4 771.8,782.9 770.6,785.9 
	767.6,789.1 764.8,791.4 762.3,794.9 761.7,798.1 761.6,801.6 761.6,806.2 760.6,810 759.5,812.3 758.1,814.4 756,818.4 754.7,821 
	753.9,823 753.2,825.9 752.9,828.2 752.7,831.1 754.2,832.3 754.8,834.3 754.7,836.9 753.1,838.3 751.9,839.5 750.6,842.7 
	750.2,845.2 750.2,847.5 750.9,850.1 751.8,851.8 753.8,856.4 753.8,859.9 753.1,865.6 752.3,866.8 750.9,868.5 747.1,869 
	744.7,871.3 743.4,872.5 743.2,874.5 743.3,876.2 743.3,878.2 742.8,880.8 741.7,882.7 740.3,884.4 739,886.6 "/>
<polyline class="st2" points="604.5,871.6 601,870.8 599.9,868.4 599.4,866 597.8,863 597.1,860.8 594.9,856.2 593.3,854.1 
	592.7,849.2 591.9,846.8 591.4,844.3 591.1,841.9 590.2,839.5 588.5,837.6 587,837.8 584.7,839.2 582.9,840.3 580,841.9 
	576.4,840.8 574.3,839.2 573.8,834.8 572.1,832.7 571.2,830.5 571.6,828.1 571.6,824.5 571.4,821.5 570.6,818.5 569.5,816.3 
	568.4,815.3 568.4,813.1 569.8,810.6 573.3,808.4 574.4,807.3 575.1,804.9 574.3,802.7 573,800.5 572.2,798.9 571.1,795.8 
	571.1,793.4 571.5,791.2 570.7,789.3 569.8,790.1 566.9,790.9 565.7,790.1 564.6,788.7 564.6,786.8 564.9,784.6 565.8,783.8 
	566.3,781.8 565.1,780.5 561.3,778.5 559.8,777.2 556.9,776.3 555.6,776.1 552.6,774.4 550.5,771.6 548.6,770.8 546.9,769.3 "/>
<polyline class="st2" points="610.4,718.5 612.5,718.5 616.3,720.1 619.9,721.3 622.9,723.8 625.8,725.8 628.9,728.3 632.1,730.7 
	634.4,731.1 637.3,732.7 637.5,735.1 637.8,738 639.1,739.6 641,740.8 643.2,741.6 645.2,742.4 646.3,747.7 647.3,749.3 
	648.4,749.7 650.9,752.5 652.9,753.7 654.3,756.5 654.3,759.4 654.7,762.6 655.2,766.2 655.2,770.6 653.2,773.8 652.7,777 
	653.4,782.3 653.8,788.2 654.1,791.8 655.9,795.4 657.4,796.2 658.4,797 657.9,800.2 656.6,801.8 657.2,806.2 658.7,809.3 "/>
<polyline class="st2" points="585.6,606.3 588.4,604.9 591.6,604 595.9,602.6 601.1,603.5 605,602.6 608.4,601.7 611.8,601.2 
	613.6,599.4 619.9,598.4 621.5,598.4 623.7,597 625,592.9 626.6,590.1 628.2,587.8 630.4,584.5 634,579.4 635.9,576.6 638.9,574.3 
	644.3,569.6 649,565.4 650.6,562.6 652.4,559.8 655.6,558.9 658.1,558.4 662.5,557.9 665.8,556.1 668.4,554.7 670.6,554.2 
	672,552.8 674.8,552.8 677.5,555.1 679.7,554.7 681.9,551.4 683.1,552.3 684.5,555.6 686.8,556.1 688.6,554.7 689.2,552.3 
	693.2,550.9 "/>
<polyline class="st2" points="608.6,637 605,638.5 601.4,637.3 599.1,639.2 596.7,641.9 594.8,644.2 592.7,646.1 589.3,645.7 
	586.3,648.3 582.9,651.4 581.5,652.1 579.7,653.3 576.1,655.2 573.8,655.2 570.9,654 568.1,653.3 564,652.9 563,654 560,654.8 
	557.9,654 556.6,652.1 556.1,648.7 553.6,644.2 552.3,640.8 550.2,637 546.7,635.8 544.4,634.3 543.1,632.8 542.1,630.1 
	541.1,626.7 540.6,624.4 542.1,623.6 544.3,622.5 545.6,621 545.6,618.3 544.8,615.2 543.4,614.8 541.8,613.3 540.1,608.3 
	537.7,602.2 536.4,598.8 535.1,597.2 534.6,594.9 534.6,591.8 535.2,588.8 536.5,586.8 537.5,583.4 538.7,581.8 540.3,581.1 
	542.4,579.1 542.8,576.8 542.4,573.3 541.3,571.8 539,568.7 536.5,565.6 534.7,561.7 532.3,559.8 530.6,558.2 528.2,556.1 "/>
<polyline class="st2" points="556.4,276.2 558.4,277.1 561.2,280.8 562.3,282.9 561.8,285.8 562.2,288.7 565.6,289.1 566.9,288.7 
	568.2,288.3 570.2,289.5 572.7,290 574.6,290 578.9,290.4 580.1,290 583,289.1 584.5,287.9 587.3,287.5 589.9,289.1 592.4,291.2 
	595,291.6 596.5,291.6 600.3,295.4 604.9,294.9 610.1,294.5 615.4,291.6 617.2,289.5 618.7,285.8 619.8,282.1 621.8,281.7 
	625.1,282.1 626.7,283.7 630.3,286.2 633.3,287.1 635.3,285 638.4,282.5 644.5,282.9 646.4,283.3 648.4,284.6 650.5,285 
	653.5,284.1 656.1,282.5 658.1,282.1 660.4,282.1 662.9,282.9 665.8,282.9 669.1,284.6 "/>
<polyline class="st2" points="858.8,197.9 861.4,201.4 863.1,201.1 863.7,204.3 862.7,207.8 859.9,214.1 856,217.6 852.3,215.4 
	850.2,214.4 848,214.1 845.5,218.6 841.2,223.6 839,224.3 835.8,226.5 832.9,227.8 831.2,229.6 827.9,230.3 825.5,230.6 823.7,230 
	822.7,229.3 821.2,229.3 819.3,230.9 815.1,230.6 811.6,230.3 807.8,229.6 804.7,229.3 802.5,228.7 800.2,230.6 798.2,232.8 
	796.5,233.8 795.1,234.1 794.2,234.1 793.5,233.4 793,231.5 792.1,228.4 790.9,226.8 788.4,224.9 786.1,226.5 782.2,225.5 
	777.5,223.6 775.1,223.6 771.2,224.9 769.2,225.5 767.1,225.9 765.7,225.9 764.4,224.9 763.2,221.1 763.8,218.6 764.5,216 
	765.8,213.8 765.4,211.9 765.9,208.4 767,205.6 766.6,203 765.2,200.1 762.9,198.9 761.1,197.3 758.1,197 757.5,194.7 755.7,192.2 
	752.3,190.3 750.7,189.6 748.5,188.7 746.7,189.3 744.6,190.6 743.6,189.3 743.8,186.1 744.4,183.2 "/>
<polyline class="st2" points="844,586 842.7,583.4 840.7,581.9 837.6,580.8 836.6,579 835.6,576.7 835.6,573.2 835.9,569.5 
	836.7,564.8 836.6,562.2 836.1,559.9 835.3,559 834,558.1 833.5,556.1 833.5,553.8 832.2,551.7 831.1,549.7 830.7,546.8 
	831.4,544.5 832.7,543.3 833.8,540.9 833.9,538 834.3,535.4 834.5,533.1 834.2,531.3 832.4,528.1 831.2,525.7 830,524.8 829,523.1 
	828.6,520.4 828.5,517.8 828.6,515.5 826.8,514 824.3,511.6 822.3,510.2 820.4,509.3 818.6,508.1 817,506 815.3,505.4 814,505.4 
	812.5,505.4 811.5,507.2 809.8,507.5 807.2,506.3 805.6,504.3 805,502.2 803.5,500.4 801.9,498.1 801,496.3 800.6,492.2 
	800.4,490.4 799.4,489.2 799.4,487.4 799.8,484.2 798.4,482.4 797.6,480.3 797.8,477.6 797.1,475.3 797.6,472.6 797.8,469 
	796.8,467.5 796.7,464.3 796.6,461.3 796,458.3 794.4,456.8 793.3,453.8 792.3,452.3 791.3,452 790.1,452 788.7,449.7 787.1,449.7 
	785.7,449.1 785,447.6 784,445.5 783.3,444.6 782.4,442.5 780.4,441.6 779.5,440.1 778.1,438.3 776.3,434.1 775.5,432 775.3,427.8 
	775.9,425.7 777.4,423.6 778,421.8 779.1,419.7 779.7,417.8 780.8,417.2 781.8,416.6 783.4,416.3 785.6,415.4 787.1,415.7 
	788.8,414.8 790.4,410.9 792.1,407.3 793.4,404.6 794.1,402.4 797.4,397.8 "/>
<polyline class="st2" points="1034.9,353.1 1034.1,349.5 1033.1,345.8 1034.9,337.8 1037.3,334.7 1041.8,333.5 1043.7,330.4 
	1045.5,327.3 1046.9,324.3 1046.9,318.7 1047.6,312 "/>
<polyline class="st2" points="998.4,475 997.7,470.8 995.7,467.2 993,463.7 990.5,460.1 988.5,456.5 988.3,450.5 992.2,445.8 
	994,442.2 994.9,437.4 994.7,433.8 994.7,430.2 996.2,426 997.7,423 998.1,419.4 994.9,415.1 994,410.9 994,407.3 996.4,403.1 
	999.9,399.4 1002.6,398.2 1007.3,395.8 1011.2,392.2 1013.4,386.7 1014.7,382.4 1015.6,376.4 1019.3,373.9 1022.1,373.3 
	1025.7,372.1 1028.7,370.3 1032.2,366 1032.6,361.1 1033.4,357.4 1034.9,353.1 "/>
<polyline class="st2" points="1120.7,350.5 1119.1,348 1117.3,343.5 1115,340.3 1112,336.5 1107.4,335.9 1104.6,335.9 1101.5,336.5 
	1097.9,338.4 1095.1,339.1 1091.5,339.1 1089.2,338.4 1086.9,338.4 1085.1,338.4 1082.6,337.8 1078,336.5 1076.5,336.5 
	1071.6,337.1 1068.8,339.1 1068.3,342.9 1067.5,348 1064.7,351.8 1061.6,353.1 1059.6,355.6 1055.2,355.6 1052.4,358.1 
	1049.1,358.1 1045.5,357.5 1042,355.6 1038.9,352.4 1036.9,350.5 1034.9,353.1 "/>
<polyline class="st2" points="905.7,679.3 904.1,681.7 902.7,684.1 901.5,686.4 900.6,689.6 899.2,691.6 897.3,693.2 895.4,692.8 
	894,692 891.6,691.2 889.6,691.2 888.4,690 887.4,688.4 885.6,687.6 884.1,686.9 882.3,686.9 881.1,688.1 880.6,690.4 879,691.2 
	877.1,692.4 875.7,691.2 874.6,691.1 872.5,692.3 870.8,693.1 867.1,696.4 864.8,696 862.9,694.8 861.2,694.8 858.9,694.8 
	857.2,696.8 855.2,699.6 852.4,700 850,697.1 847.7,697.1 845.3,697.1 842.7,697.5 838.6,700.4 836.6,701.2 835.2,699.6 835,695.6 
	835,692 835.2,689.2 834.6,685.6 833.4,684.4 832.5,680.5 832.5,677.3 831.3,675.7 827.8,672.1 827.3,668.8 826.8,666.4 826.8,662 
	826.4,659.2 826.8,656.8 827.3,653.6 826.3,647.9 825,647.1 823.1,644.7 820.7,643.5 818.6,645.5 816.5,646.7 814.2,645.5 
	811.8,644.3 810.5,644.3 809,645.5 807.9,647 805.9,645.7 "/>
<polyline class="st3" points="416.7,654.4 415.4,649.1 413.3,646 411.9,642.5 412.8,636.4 411.6,632.6 409.9,632 405.9,633.5 
	398.5,630.8 395.9,631.5 393.6,632.9 391,633.5 "/>
<polyline class="st3" points="391,633.5 388.3,633.9 387,634.8 386.2,636.5 385.9,639.2 385.7,642.7 385.8,646.1 386,648.4 
	387.1,650.7 388.8,652.9 390,655.3 389.6,657.9 386.2,662.3 384.6,665 383.8,668.3 384.1,670.2 384.7,671.6 385.3,672.6 
	385.6,673.8 385.3,675.1 383.6,677.4 382.8,678.7 382.8,680 384.8,681.9 385.6,683.2 385.7,685.1 385.2,686.1 384.3,686.9 
	383.4,688.2 383.8,688.8 384.4,690.4 384.7,691.1 384.1,692.3 383.6,693.4 383.3,694.6 383,696 382.8,697.7 382.9,699.2 
	382.8,700.8 382.3,702.4 382.3,705.3 384,707.6 386.2,709.3 388.9,710.3 391.1,712.3 393.2,713.3 393.5,714.5 393.6,716.1 
	393.8,717.7 394.2,719 394.6,720 396.5,723.3 398.2,725.2 399,726.4 397.3,727.6 395.7,728 394.5,729.1 393.8,732.3 393.8,735.8 
	394.5,737.7 395.7,738.7 397.2,739.2 400,742 398.5,746.3 396.1,751.4 395.9,756.8 394.7,758.4 393.3,758.9 388.1,758.6 
	387.5,759.1 387.2,760 387,761.9 386.9,762.5 386,764 383,766.9 382.5,768.3 383,769.8 384.7,772.2 379.7,774.5 376.8,776.6 
	375.6,779.5 376,782.5 377.4,788.6 377.4,791.6 376.9,792.9 375.3,795.8 374.8,797.2 374.5,798.9 374.4,800.5 374.2,802 
	373.7,803.6 368.7,812.7 357.7,824.7 353.7,826.6 "/>
<polyline class="st4" points="353.7,826.6 346.4,828.7 344.3,830.1 342.6,832.7 341.9,836.9 341,841.2 338.8,843.6 334.1,846 
	332.2,847.9 331,850.5 330.4,853.8 330.2,857.9 330,858.8 329.1,860 328.9,861.1 329,862.2 329.3,863.7 329.4,864.5 329.1,867.1 
	328.5,868.1 327.5,868.1 323.8,866.7 322.5,866.9 322,868.7 322.4,869.9 324.8,872 325.7,873 326.1,874.4 326.5,877.2 327,878.6 
	328,880.1 329.1,880.4 332.7,879.8 335.2,878.5 336.5,878.2 338.2,878.6 339,879 339.7,879.6 340.4,879.8 341,879.4 342.3,878.2 
	344.9,878.6 345.3,882 344.3,885.8 343,887.7 342.1,888.3 341.1,889.9 340.1,891.7 339.5,893.2 339.1,895.3 339,896.7 339.3,899.8 
	339.9,903 339.7,904 338.9,905.4 337.8,906.4 334.9,907.2 333.7,907.3 332.7,907.9 332.5,909.5 332.8,912.9 332.7,916.6 
	332.3,917.7 331.1,919.5 332.5,921.6 333.6,922.7 333.7,924.1 327,934.8 325.2,936.8 323.2,937.4 319,937.1 317.5,937.7 316,939.2 
	314.6,941.3 313,944.4 "/>
<polyline class="st3" points="1298.4,115.4 1297.1,114.8 1292,109.3 1289.1,107.7 1285,107.7 1276.4,110.4 1274.6,109.5 
	1273.8,108.8 "/>
<polyline class="st3" points="1273.8,108.8 1272,107.6 1271.2,107.2 1270.3,107.1 1269.2,107.6 1265.9,110.4 1261.2,111.7 
	1258.7,113.9 1254.3,122.4 1251.9,125.6 1250.3,126.3 1246.9,126.3 1241.5,130.5 1240.2,131.9 1239.2,133.7 1237.1,139.3 
	1234.7,143.3 1218.6,158.4 1206.4,164.6 1205.4,165.8 1203.9,170.2 1203,171.6 1192.9,174.7 1191.5,175.5 1188.9,178.5 
	1185.9,180.7 1182.1,182 1179.8,184.7 1177.8,188.5 1176,192.9 1175.5,194.4 1174.8,197.9 1174.3,199.5 1173.2,201.7 1169.7,205.2 
	1168.8,207.6 1168.5,211.3 1168.7,215.3 1169.5,218.5 1171.5,221 1176,223.8 1177.5,227.9 1174.8,229.9 1130.6,232.5 1128,229.6 
	1126.6,226.6 1125.9,225.4 1124.9,224.3 1123.4,223.6 1120.2,223.4 1118.6,222.7 1117.7,222.7 1116.5,223.6 1115.3,225.2 
	1114.9,227.4 1114.5,229.8 1113.8,231.5 1106,242.9 1105.5,244 1105.3,245 1105.5,245.9 1105.6,246.6 1105.5,247.4 1104.5,250.7 
	1104.3,254 1104.7,257.2 1105.7,260 1105.2,261 1103.9,262.7 1103.4,263.7 1103.3,265.1 1103.8,265.9 1104.9,266.6 1105.6,268.9 
	1106,270.9 1105.8,272.9 1104.9,274.8 1101.8,278.1 1100.2,279.2 1097.3,280.2 1096.4,281.7 1096.4,283.5 1097.5,285.2 1096.9,286 
	1096.3,286.4 1095.6,286.4 1095,286.2 "/>
<polyline class="st4" points="1095,286.2 1092.3,285.2 1091.2,285.9 1088,291.7 1086.4,293.2 1085.9,294 1085.8,294.6 1085.9,296.6 
	1085.9,297.1 1084.4,298.2 1081.4,297.7 1079.8,298.2 1074.8,304.9 1072.2,306.9 1069.4,305.3 1067.9,303.9 1066.6,303.8 
	1065.2,304.8 1063.8,306.5 1062.4,307.5 1057.8,308 1056.5,308.9 1053.9,311.5 1052.6,312.4 1047.6,312 1044.7,314.2 1032.2,313.2 
	1026.3,309 1010.3,308.7 1006.1,312 1003.4,313 985.2,313.6 984.5,314.5 982.5,319 981.7,320.6 980.3,321.7 978.8,322.3 
	966.3,318.9 957.3,312.3 954.3,311.2 951.4,312.4 949.4,315.7 947.6,320 945.7,323.8 942,325.9 936.6,331.6 923.5,334.9 
	918.6,337.8 909.8,346 901,344.4 898.9,343.1 897.1,340.8 896.1,337.4 896.1,334.7 896.4,331.3 897.4,325.4 896.9,324.4 
	897.4,323.3 895.3,319.4 877.9,304.7 875,303.1 871.8,302.5 868.7,303 865.8,304.7 861.9,308.8 861.1,310.2 860.5,312.3 860.4,314 
	860.8,318.7 861.1,320.5 861.2,322.2 860.9,323.8 859.7,325.8 858.3,327.2 849.8,330.8 844.8,331.4 842,333.3 839.1,333.6 
	837.8,334.6 831,344.7 830,345.4 827.3,346.4 826,347.4 824.7,348.7 823.7,350.8 823.3,352.6 823.3,354.1 823.1,355.6 822.1,357.2 
	820.7,358.2 813.4,359.5 810.9,361.2 809.3,363 807.8,365.6 806.4,369 804.5,372 799.4,377.2 798,381.2 798.2,385.1 799.1,388.3 
	799.6,391.6 798.6,395.7 796.1,398.8 792.9,400 780.8,398.9 741.9,409 736.8,408.3 724.2,400.3 723,400.1 722.6,399.8 "/>
<polyline class="st3" points="188,1250.8 189,1250.2 191.4,1250 195.7,1251.2 197.1,1251 198.1,1250.2 199.9,1248.2 201,1247.4 
	202.2,1247.2 204.5,1247.7 205.7,1247.4 206.6,1246.7 208.3,1244.1 209.2,1243.2 215.4,1240.7 218.1,1237.5 220.5,1236.9 
	222.5,1234.6 223.6,1234 229.6,1233.8 230.4,1232.8 230.7,1230.9 230.2,1230 229.3,1229.4 228.6,1228.4 228.2,1224.9 229.3,1222.5 
	231.1,1220.9 232.9,1219.9 232.3,1217.1 232.1,1216.3 233,1215.9 235.6,1215.5 238.2,1213.7 245.5,1212.9 246.1,1212.5 
	246.6,1211.6 247.1,1210.6 247.7,1209.8 248.5,1209.5 250.4,1210.8 251.3,1211.1 257,1211.8 258.9,1211.1 261,1209.2 262,1207.7 
	262.2,1207.2 262.4,1206.3 262.4,1204.5 262.2,1203.2 261.3,1199.5 261.1,1198.1 261.7,1193.1 261.6,1191 259,1189.5 255.8,1184.9 
	257.7,1182.6 258.9,1179.4 260.4,1176.5 262.8,1175.3 263.6,1174.6 264,1173.1 263.8,1171.6 263,1170.9 262.4,1170.8 261.2,1170.2 
	260.6,1170.1 259.9,1169.8 259.9,1169 260.1,1168.1 260.2,1167.5 259.7,1164.6 259.3,1163.8 258.5,1163.1 257.2,1163.2 
	254.4,1165.4 253.5,1165.2 253,1163.7 252.8,1162.1 252.7,1160.7 252.6,1160 251.2,1157.4 247.2,1152.3 246.4,1151.5 244.9,1151 
	240.8,1152.5 229.5,1149.8 228.3,1150.2 227.5,1151.1 226,1153.4 222.9,1155.8 220.9,1158.8 219.6,1159.7 218.2,1159.8 217,1159.1 
	215.8,1158.8 214.8,1160 213.1,1163.1 210.8,1165.6 209.5,1167.6 207.8,1171 207.5,1172.2 206.2,1172.7 198.8,1178.7 197.7,1178.2 
	195.7,1176.3 194.5,1176.2 194,1176.7 193.7,1177.4 193.6,1178.1 193.2,1178.7 188,1181.5 185.1,1181.3 "/>
<polyline class="st3" points="338.5,643.4 338.5,646.8 337.9,649 336.8,650.5 333.7,652.8 327.2,660.6 326.5,661.8 326.2,663.3 
	326.1,666.3 325.9,667.4 324.5,669.4 321.1,671.6 319.6,673.8 319.1,674.8 317.5,676.9 316.5,678 "/>
<polyline class="st3" points="316.5,678 313.7,679.8 311,680.4 309,679 308.2,674.8 306.5,670.1 303.1,670.1 300.6,669 301.3,661.3 
	291.2,649.4 287.8,646.3 285.4,645.6 284.1,644.7 283.5,642.9 283.2,641.3 282.3,640.2 281.4,639.6 280.6,639.5 279.5,640.2 
	277.6,642.9 276.6,643.4 272.7,642.1 271.4,642.9 270,644.2 269.8,645 269.7,646.9 269.4,649.1 268.8,650.6 265.3,654.4 
	264.5,655.7 264.7,656.4 265,656.5 265.3,657 265.4,657.7 265.4,658.3 265,659.9 264.6,660.3 260.9,661.1 260.2,661.9 259.1,663.8 
	257.5,668.1 256.7,669.3 255.5,670 252.8,670.1 251.5,670.8 249,673.6 248.1,674.3 248.2,674.7 248.3,675.3 248.5,675.8 
	248.9,676.3 248.7,677.9 248.9,680.5 248.7,681.7 248,682.3 244.2,683.2 243.2,684.5 242.5,687.6 240.8,698.4 240.3,700 
	239.7,701.4 238.2,703.9 237.5,705.4 237.1,708.9 238.2,711.2 240,713.1 241.2,715.7 239.4,716.5 238.3,717.3 238.3,718.6 
	241.1,722 242,723.4 243.6,726.9 244.2,728.9 245,732.8 245.7,734.8 245.9,735.5 246,736.6 245.9,738.7 246.4,739.2 249.4,741.2 
	248.7,745 249.3,746.2 250.7,746.4 252.4,747 251.6,750.2 248.1,758.7 251.6,760 252.9,761.5 252,764.5 253.6,766.1 254.2,767.2 
	254.5,769.3 254.5,770.8 254.3,773.1 253.9,775.2 253.3,776.1 249.1,777.7 247.9,777.5 246.4,776.7 244.7,776.4 243.1,776.6 
	240.6,778.2 239.5,778.3 238.4,777.8 237.5,776.6 236.6,776.2 235.3,777.4 234,779 232.9,780 230.4,779.8 228.1,778.1 223.9,773.1 
	221,771.3 207.2,772.7 205.4,771.4 205.7,767.4 206.4,766 208.3,763.2 208.8,761.6 208.6,759.8 207.4,756.9 207.1,755.3 
	206.1,752.2 201.3,749.3 199.5,747.5 197.2,743.2 196.8,740.9 197.5,738.1 199.1,736.4 200.8,735.2 201.8,733.3 201.4,729.4 
	200.5,726.7 199.3,724.5 196.7,721.1 194.1,720 188.7,721.1 186.3,719.7 191.7,713.4 194.1,709.3 195.4,704 195.1,699.7 "/>
<polyline class="st4" points="195.1,699.7 194.8,696.1 194.7,695.5 193.5,693.5 192.4,692.2 191.9,690.8 192.7,689.1 193.6,688.4 
	195.4,688.6 196.2,688.2 196.9,687 197.2,685.9 197.4,684.8 197.7,683.7 199.2,681.6 200.7,680.5 206.1,679 211.4,681.2 
	212.8,680.9 214.4,679.6 215.3,677.4 214.8,674.3 215.2,673.3 214.8,672.3 215.2,671.3 214.3,668.2 213.4,664.4 213.1,660.5 
	213.7,656.9 213.6,655.1 213,653 212.7,651.2 213.5,650.4 214.9,649.8 216.3,648.2 217.4,646 218.3,643.4 216.6,642.9 214.6,643 
	213.4,642.3 213.9,639.5 211.4,639.8 210.1,639.5 209.2,638.5 209.1,636.4 210.9,634 211.4,632 210.3,629.1 207.8,626.5 
	203.1,623.5 198,621.9 197.4,619.8 196,619.3 193.2,619.4 189.7,616.2 "/>
<polyline class="st3" points="629,924.1 626.9,923.5 625.8,922 623.7,917.5 622,915.6 620,914.5 615.4,913.9 "/>
<polyline class="st3" points="615.4,913.9 606,914.8 601.3,913.9 599,912.6 597.2,910.6 592.2,902.6 591.3,901.7 590.4,901 
	589.3,900.6 588.3,900.8 587.5,901.6 585.9,904.1 583.6,905.7 582.8,908.4 582.5,911.8 582.7,914.8 582.3,915.5 581.8,916.1 
	581.2,916.5 580.5,916.6 579.7,916.2 579.2,915.3 578.8,914.4 578.4,913.9 576.6,914.2 575.1,915.5 573.4,916.4 568.4,913.6 
	564.7,914 561,915.9 558,918.5 557.9,920.6 557.6,922.6 557.2,924.6 556.5,926.4 555.7,928.3 555.3,929.7 555.1,931.3 555,933.9 
	554.8,936.2 553.9,940.1 553.7,942.2 554.1,944.1 555,945.8 557,948.7 557.7,951.8 557.4,959.7 557.6,963 559,966.4 560.7,969.2 
	561.8,972.3 561.5,977 566.3,979 568.7,981.3 569.7,984.8 570.1,986.8 571,987.6 573.8,988.6 576.2,988.8 576.7,989.1 577.1,989.9 
	577.5,990.8 577.9,991.6 580.3,992.5 585.1,990.3 596.5,994.1 597.8,996.6 598.6,1008.1 598.6,1010.1 598.3,1010.9 597.9,1011.7 
	597.4,1013.5 597.4,1015.4 598.4,1017.2 598.6,1019 595.7,1023.5 591.1,1023.2 582.4,1026.6 576.2,1031.8 574.2,1032.7 
	572.3,1032.6 565.3,1029.3 560.5,1029 558.4,1029.4 556.3,1030.4 553.2,1032.9 550.9,1033.8 549.8,1034.5 548,1036.2 547,1036.9 
	533.1,1039.5 530.6,1038.6 528.6,1033.3 526.6,1031.4 524.4,1030.1 523.1,1028.9 522.8,1027.9 522.4,1025.3 521.6,1022.9 
	520.8,1019.9 "/>
<polyline class="st3" points="521.3,1019.9 520.9,1018 520.1,1015.9 519.1,1014.2 518.1,1013.5 518.1,1012.4 520.3,1007.1 
	520.8,1005.3 518.3,1004.5 513.6,1004.6 513.1,1004.4 512.6,1003.6 512.5,1002.9 512.4,1002.3 512.2,1001.6 510.5,998.7 
	508.6,996.9 506.5,996.1 500.1,997.1 499.2,997.9 498.8,999.3 498.5,1002.2 497.9,1003.5 496.8,1004.2 495.4,1004.2 494,1003.4 
	493,1002.1 492.6,1000.9 492.1,998.4 491.7,997.5 489.7,994.4 487.8,992.6 485.7,991.8 483,991.6 481.6,991.2 479,989.2 
	474.8,988.2 473.3,987.5 472,986.5 471.4,986.4 470.4,987.6 470,987.7 468.6,987 467.9,986.9 467.2,987 466.2,987.5 464.4,989.2 
	463.4,989.7 461.9,989.6 458.2,987 457.2,986.8 456.2,986.9 "/>
<polyline class="st4" points="456.2,986.9 454.5,987 453.7,986.8 453,986.1 454.2,984.7 453.4,983.6 449.8,980.9 423.2,982.5 
	408.1,990.9 406.3,994.3 406.9,994.6 407.5,995.2 408,996 408.5,997.1 407.4,997.9 397.1,999.8 395.8,999.5 394.7,998.8 
	394.2,997.5 393.8,995.4 392.9,994.7 391.8,994.9 390.7,995.7 388.2,996.6 383,993.5 380.4,993.4 379.3,994.4 377.6,996.6 
	376.5,997.1 375,996.7 373.6,996 372.4,995.8 371.3,997.1 371.2,998.2 371.2,999.4 370.9,1000.6 369.6,1001.6 366,1002.7 
	361.3,1005.8 356,1007.5 355.1,1008.5 354.1,1009.2 348.3,1009.1 342.5,1011.3 340.4,1010.8 338.7,1008.8 338,1004.8 338.7,1004.8 
	340.3,1004.3 342.1,1003.2 343.2,1001.6 338.9,998.7 336.8,996.4 335.8,992.9 335.9,991.3 336,989.8 336.2,988.5 336.5,987 
	337.2,985.6 339.3,982.3 339.8,980.6 338.4,977.3 332.4,976.8 331.1,973.7 330.3,969.7 328.3,968.2 325.9,968.4 323.7,969.5 
	317.5,975.3 314.9,976 309.1,975.1 303,976 300.9,974.2 301.7,971.4 303.6,968.2 304.7,965.4 304.2,962.5 302.1,957.2 302.1,954.8 
	303.9,953.2 313.9,951.7 315.2,951.2 316.4,950.2 316.8,948.7 316.4,946.9 315.2,945.8 310.4,943.1 309.2,943 307.8,943.7 
	304.1,946.9 303,947.4 290.5,943.7 288,943.8 285.8,944.9 283.9,947.1 280.3,953.8 278.3,956.1 276,957.6 273.6,958.4 268,958.2 
	265.3,958.9 261.1,964.3 258.6,966.3 255.9,967.1 253.7,966.3 253,965.8 251.4,965.3 250.7,964.9 246,959.5 241.4,956.4 
	235.6,955.7 233.9,956.5 233,956.5 232.5,955.3 232.4,953.9 232,953.2 230.8,952.4 229.3,951.7 228.1,952.8 226,956.6 224.7,958.1 
	219.4,961.6 216.5,962.2 215.8,962.7 214.6,964.3 213.9,964.9 212.3,965.3 209.1,965.1 207.5,965.9 207.7,968.2 205.5,969.8 
	200.5,971.8 196.7,975.6 195.3,977.5 194.7,977.8 194.1,978.3 193.7,979.4 193.4,980.7 193.2,981.5 192.2,982.4 189.8,983.4 
	188.9,984.3 188.2,985.8 187.7,987.7 184.8,1001.9 183.6,1004.4 181.5,1006 176.8,1007.9 174.8,1010.3 "/>
<polyline class="st3" points="849.3,965.4 851.3,963.7 852.3,963.4 862.8,971.1 864.2,971.7 864.9,971.7 865.7,971.6 867.7,970.3 
	868.4,970 869.5,970 871.6,970.6 872.6,970.7 873.4,970.1 873.8,968.9 874.3,965.4 "/>
<polyline class="st3" points="673.5,837.9 674.1,840.7 675.7,844 677.5,846.7 678.9,847.9 679.3,849.2 681,855.5 681.7,857.4 
	681.2,858.4 681.7,859.3 678.5,868.6 678.4,869.7 678.6,871.6 680,875 682.2,877.5 684.7,878.9 686.9,879.1 692,878.2 692.9,878.7 
	695.5,882.4 700.3,887.3 702.9,888.9 705.6,889.6 708.9,891.7 710.9,896.9 713.4,915.9 713.7,919.1 713.7,921.3 713.3,922.8 
	712.2,925.4 711.9,926.9 712.2,928.5 712.7,929.9 712.8,931.2 711.9,932.5 713.4,934.4 713.4,936.5 712.4,938.7 711.1,940.8 
	710,943 709.5,945.2 709.1,947.6 708.4,950.1 707.4,951.8 706,953 704.7,954.3 704.2,956.6 704.8,959 706.3,960.2 712.8,961.7 
	713.2,962.6 713.3,965.3 713.5,966.7 713.7,967.7 714.3,968.5 715.2,969.1 715.9,969.8 716.2,970.9 716.3,972 718,978.3 
	718.2,978.7 718.8,979.3 718.8,980.7 718.4,983.3 718.5,985.8 718.7,986.5 719.1,987.5 719.6,988.4 720.1,989.2 720.6,990.2 
	721,991.6 720.4,993 719.7,995.5 719.3,998.2 719.5,1000.3 720.9,1001.4 722.8,1000.4 724.6,998.8 726,997.9 729.8,999.1 
	731.9,1000.5 732.7,1002.6 731.7,1003.7 727.6,1005.1 726.2,1006.3 727.7,1007.9 729.2,1009.3 730.9,1010 732.7,1009.8 
	734.3,1008.4 735.1,1008.3 737.9,1012.6 739.4,1013.9 741,1014.4 742.6,1013.6 744.1,1011.3 745.1,1010.2 746,1011 747,1013.5 
	747.9,1014.4 748.7,1014.8 749.6,1014.8 759.8,1011.2 770.4,1003.9 773.5,999.6 774.5,998.6 775.5,997.9 776.4,997.6 777,997.8 
	778.5,998.9 780.2,999.7 782.5,1000.2 784.5,999.4 785.4,996.6 787.5,992.4 788.4,989.7 787.6,987.9 788.5,985 788.6,983.7 
	788.6,982.4 788.4,982.5 788.3,982.6 788.1,982.1 788,981.3 788,980.6 788.4,979.9 789.2,979.6 789.3,979.2 790.2,977.4 
	801.3,971.3 803.1,970.9 804.4,969.9 806.6,965.4 809.8,963.6 812.7,959.9 814.4,958.9 822.6,960.7 824.4,961.7 829.5,968.5 
	835.8,971.6 837.7,973.2 838.5,974.5 839.1,975.7 839.8,976.4 840.8,976 843,973.8 844,972.3 845.8,968.8 846.9,967.4 849.3,965.4 
	"/>
<polyline class="st4" points="605.7,415.3 608.6,412.8 609.9,411.2 611.1,408.7 611.9,405.9 612.4,402.7 612.7,399.3 613,389.3 
	613.3,386 613.8,383.3 614.5,381.6 615.9,378.9 616.6,377.7 618.3,375.8 628.5,370.2 630,368.1 633.3,362.2 634.5,360.7 647.8,352 
	649.3,350.5 656.2,346.1 657.8,345.5 660.4,345.7 664.4,347.4 665.9,347.3 671.4,345.1 678,345.5 685.6,342.1 687,341.8 693.1,345 
	693.8,345.6 694.5,346.9 694.8,348.2 695.5,352.6 696.1,355.5 697.8,359.5 698.7,361.9 699.2,364.5 699.4,365.2 700.1,366.3 
	703.3,369.3 705,370.3 705.8,371.2 706.1,371.7 707.1,374.4 708.1,376.4 708.5,378.2 709,384 709.3,385.5 709.7,386.9 710.2,388.1 
	714.4,393.1 721.5,398.6 722.2,399.7 722.7,401.2 722.6,401.5 722.5,401.9 722.3,402.6 722.1,403.4 720.3,407.2 719.4,409.4 
	718.8,410.1 718.7,411.6 718.4,413.3 718,414.9 712.1,427.8 710.9,429.8 710.3,431.1 710,432.6 710,436.5 711.2,438.8 717.2,444.1 
	718.1,445.5 718.4,446.2 718.5,446.7 718.7,447.3 718.8,448.1 719,450.7 719,451.2 719.6,451.8 720.8,455 721.4,455.8 722,456.3 
	725.3,457.8 725.9,458.3 726.8,459.5 727.2,459.9 730.1,461.9 731.4,463.5 732.5,466.2 734,471.7 734.2,474.7 733.7,477.7 
	732,481.8 731.7,482.9 731.1,486.6 731.4,488.7 732,490.6 732.5,492.9 732.7,495.3 732.7,498 732.3,499.9 731.7,502.2 731.3,504.6 
	731.6,506.7 732.9,511.8 732.6,516.5 730.1,525.8 731.3,526.6 735.2,531.3 736.9,532.1 738.8,532 740.6,531.1 742.2,529.5 
	743.4,528.6 745.3,528.2 747.1,528.7 747.8,530.5 747.9,531.5 748.2,533.4 748.2,534.6 747.9,535.6 746.5,537.4 746.1,538.2 
	745.9,543.2 748.9,544.6 755.6,543.3 758.4,544.5 760.1,547.8 761.5,551.7 763.8,554.5 766.6,555.8 768,556.9 769,558.6 
	769.2,559.8 769.6,563.3 769.9,564.8 771.7,568.2 774.3,570.3 777.1,571.5 781.7,572.3 784.2,573.7 786.3,576.4 787.1,580.5 
	787,582.4 786.3,587.1 786.2,588.7 786.3,593.2 785.2,597 781.4,603.1 780.6,606.8 780.5,608.6 780.3,609.9 780.1,611.3 
	780.2,613.4 780.6,615 782,618.4 782,623.1 779.6,623.2 776.5,622 774.4,622.9 774.8,626 777,628.9 779.6,631.5 781.1,633.5 
	779.8,636.3 775.9,637.2 774.4,639 774.3,641.2 775.3,643.5 777.6,647.4 775.8,648.3 772.5,645.6 770.8,645.4 769.6,646.7 
	769.3,648.4 769.5,650.3 770.1,651.9 770.1,653.9 768.9,655.8 763.5,661.2 762,662 760.4,662.3 759.8,662.7 759.5,663.7 
	759.5,664.9 759.9,665.9 760.7,666.5 762.5,667.2 766.9,667.4 768.7,668 770.1,669.8 771.1,672.4 771.3,673.7 770.6,674.2 
	763.8,673.9 762.1,674.3 764.6,677.3 767.8,678.2 770.4,679.9 771.6,685.6 770.1,689 762.8,692.5 760.4,694.9 763.8,701.4 
	764.3,704 763.6,707.3 761.9,708.7 758.2,708.9 753.5,707.3 751.3,707.1 749.1,708.9 748.3,710.3 747.5,713.3 747,714.7 
	746.2,715.7 744.3,716.6 743.5,717.2 740.7,718.4 737.8,716.9 732.3,712.8 730.7,712.6 722.2,714.2 714.1,721.8 712.8,724.5 
	712.7,726 712.9,729.5 712.6,730.9 711.1,734 710.5,735.8 710.2,737.7 710,739.9 709.6,741.4 708,744 705,750.8 703.1,753.7 
	700.8,756.2 698.2,758 696,758.7 695.1,759.2 694,760.7 693.2,762.6 692.9,764.5 693.5,766.3 694.7,767.6 701.8,772.2 703.2,774.8 
	701.6,778.4 699.6,778.3 697.4,776 695.4,774.8 693.8,778 693.9,780.9 695.9,786.7 696.4,790.1 695.7,794.7 694.1,794.3 
	692.1,791.9 690.3,790.5 689.1,791.3 688.4,793 688,795 687.5,796.8 686.5,799.1 685.7,799.9 681.3,800 679.9,800.5 678.6,802 
	678.1,803.4 677.4,806.5 676.9,807.8 674.2,810.2 671.3,809.2 668.4,807.1 661.1,804.8 659.4,806.2 658.8,811.2 659.7,814.1 
	661.8,816.8 665.7,820.3 664.4,824.3 665.8,826.6 670.5,828.8 672.2,830.2 673.1,831.5 673.4,833.8 673.5,837.9 "/>
<polyline class="st4" points="432.7,214.6 439.1,218.3 440,219.4 440.6,221.3 440.7,223.9 440.1,226.3 438.3,230.1 437.8,232.5 
	437.9,235.2 439.2,239.8 439.6,242.4 439.6,243.9 439.4,245.4 438.6,249.3 438,254.8 437.1,259.5 436.9,261.3 437,263 437.2,264.6 
	437.5,266.3 437.8,270.3 437.1,273.3 436.1,276.2 435.7,279.9 436.2,283.1 437.1,285 441.7,289.4 442.7,291 445,296.7 445.6,299 
	445.7,301.4 445.4,303.8 444.3,308 444.1,310.7 443.9,312.7 444.4,314.1 445.9,315.8 446.3,316.6 446.7,317.6 447,318.8 
	447.2,320.2 447.3,321.8 447.4,323.6 447.3,325.3 446.9,326.6 446.3,327.3 445,327.8 444.4,328.4 443.7,329.7 442.9,331.6 
	442.2,333.8 442,335.9 442.2,338.5 444.1,346.3 445.6,351 446.1,353.9 446.5,357 446.6,369.4 446.1,380.4 446.2,383.6 446.7,386.5 
	447.4,388.7 448.4,390.1 450.4,392.3 451.6,395.6 450.9,398.9 444.7,409.6 441.4,413.7 435,418.3 433,420.5 431.6,423.7 
	429.7,432.2 428.6,436.1 428.7,436.1 428.7,436.2 428.7,436.3 428.7,436.4 427.6,438.8 426.9,442.2 425.8,453.2 424,463.3 
	423.6,471.8 422.8,477.4 422.9,479.8 423.4,481.8 424.4,483.3 426,484.6 427.7,485.4 441.3,486.6 444.3,486.1 461.8,492.5 
	463.1,493.5 466.4,497.7 467.7,498.7 470.8,499.2 472.1,499.1 473.5,498.5 477.3,495 478.8,494.3 480.2,494.1 494.6,498.5 
	497.3,498.5 499.9,497.8 519.2,482.2 520.7,481.6 526.6,482 532.8,480.5 537.3,480.7 541.8,479.2 556.2,478.9 558.9,477.8 
	561.5,475.4 561.7,474.4 562.1,473.6 562.8,472.3 563.2,471.4 563.4,470.5 564.3,466.1 564.9,464.1 565.6,462.4 569.2,456.6 
	569.7,456.2 570,454.6 573.4,446.8 574,446 575.4,444.9 578.4,444.5 581.3,443 586.9,442.5 589.5,441.1 590.7,439.9 593.8,434.3 
	594.9,432.9 596.3,428.1 596.9,426.7 598.2,424.5 605.7,415.3 "/>
<polyline class="st5" points="422.5,181.4 422.8,189.8 423.2,191.7 423.9,193 424.9,193.6 425.9,194 427,194.6 427.8,195.9 
	428.3,198.3 428.3,200.8 427.6,205.4 427.6,207.9 428.3,210.7 429.6,212.6 431.1,213.9 432.7,214.6 "/>
<path class="st6" d="M709.1,1054.2"/>
</svg>
