<?xml version="1.0" encoding="utf-8"?>
<!-- Generator: Adobe Illustrator 23.0.6, SVG Export Plug-In . SVG Version: 6.00 Build 0)  -->
<svg version="1.1" id="Слой_1" xmlns="http://www.w3.org/2000/svg" xmlns:xlink="http://www.w3.org/1999/xlink" x="0px" y="0px"
	 viewBox="0 0 289.4 307.9" style="enable-background:new 0 0 289.4 307.9;" xml:space="preserve">
<style type="text/css">
	.st0{fill:none;stroke:#000000;stroke-width:1.1339;stroke-linecap:round;stroke-linejoin:round;stroke-miterlimit:10;}
	.st1{fill:none;stroke:#7BB6DC;stroke-width:0.4252;stroke-linecap:square;stroke-linejoin:bevel;stroke-miterlimit:10;}
	.st2{fill:none;stroke:#7BB6DC;stroke-width:2.5512;stroke-linecap:square;stroke-linejoin:bevel;stroke-miterlimit:10;}
	.st3{fill-rule:evenodd;clip-rule:evenodd;fill:#A3D1F0;}
	.st4{fill:none;stroke:#7BB6DC;stroke-width:0.737;stroke-linecap:square;stroke-linejoin:bevel;stroke-miterlimit:10;}
</style>
<polyline class="st0" points="131.7,17.2 133.1,17.2 134.1,17.8 "/>
<polyline class="st0" points="128.7,18.8 129.5,18.1 131.7,17.2 "/>
<polyline class="st0" points="216.7,0.4 217,0.6 217.2,1.6 217.3,3.1 217,8.6 218.1,9.4 "/>
<polyline class="st0" points="209.6,4.6 210.3,4.5 211,4.2 216.2,0.6 216.7,0.4 "/>
<polyline class="st0" points="205.3,3.2 205.8,3.2 206.5,3.4 207.3,4 208.1,4.4 209.6,4.6 "/>
<polyline class="st0" points="197,14.5 197.6,14.3 198.2,13.8 199.2,11 200.3,9 201.5,7.4 203,4.7 204.1,3.5 205.3,3.2 "/>
<polyline class="st0" points="224.7,4.5 225.7,4.8 227.4,6 234.4,12.3 236.2,13.4 240.4,14 243,15.6 244.5,16 "/>
<polyline class="st0" points="218.1,9.4 223.3,9.1 223.7,8.8 223.9,8.5 224.1,7.5 224.6,4.8 224.7,4.5 "/>
<line class="st0" x1="194.1" y1="14.1" x2="197" y2="14.5"/>
<polyline class="st0" points="187.7,37 188.2,36.9 188.7,36.6 189,36.2 189.1,35.3 189.1,34.7 189,34 188.9,33.4 189.1,32.6 
	189.5,31.6 191.2,29.2 191.7,28.3 191.9,27.2 192,26.4 192,25 192.1,24.2 192.7,22 192.6,21.3 192.4,20.8 192.3,20.6 191.9,19.9 
	191.9,19.7 191.9,19.4 192.6,15.4 192.8,14.7 193.2,14.3 194.1,14.1 "/>
<polyline class="st0" points="250.1,15.7 250.7,15.8 251.1,16.2 251.4,16.6 251.5,17.5 251.6,18.7 251.7,22.6 251.1,26.6 
	252.2,27.1 253.4,27.5 "/>
<line class="st0" x1="244.5" y1="16" x2="250.1" y2="15.7"/>
<polyline class="st0" points="134.1,17.8 136,18.7 141.6,18.9 142.8,19.2 143.8,20.2 144.1,21.4 145.4,25 145.9,25.4 146.7,25.7 "/>
<polyline class="st0" points="153,21.2 153.5,21.2 154,21.7 154.7,22.8 155.4,24.3 155.7,25.3 156,26.4 156.4,27.1 157,27.8 
	158.3,28.9 158.8,29.7 159.1,30.3 159.4,31.4 159.8,32.5 160.4,33.9 160.8,34.5 161,34.9 161.1,35.4 161,35.9 160.7,37.1 
	160.7,37.4 160.9,37.7 161.1,37.9 161.5,38.1 "/>
<polyline class="st0" points="146.7,25.7 148.2,25.5 149,25.1 150,24.3 151,23.9 151.4,23.7 151.6,23.2 151.7,22.6 151.8,22.1 
	152.1,21.7 152.5,21.3 153,21.2 "/>
<polyline class="st0" points="283.1,22 283.8,22.1 284.3,22.3 284.9,22.5 285.8,23.2 286.2,23.6 286.8,24.3 286.9,24.7 287.1,25.4 
	287.2,26.4 286.9,28.3 286.7,29.3 287,30.7 289.4,33 "/>
<polyline class="st0" points="278.6,28.4 280,28 280.6,27.4 280.9,26.7 280.8,24.9 280.8,24.2 280.9,23.6 281.2,23 281.6,22.6 
	282,22.3 282.6,22.1 283.1,22 "/>
<polyline class="st0" points="277.7,24.2 278.2,24.4 278.5,25 278.5,25.7 278.3,26.3 278,26.8 277.8,27.4 277.7,27.9 278,28.3 
	278.6,28.4 "/>
<polyline class="st0" points="260.9,36.8 261.5,36.7 262.5,35.9 262.7,35.4 262.7,34.9 262,34 261.7,33.6 261.6,33 261.6,32.4 
	261.7,31.7 262.4,31 263.6,30.3 266.5,29.3 267.5,28.6 268,28 267.9,27.4 268.1,26.8 268.3,26.3 268.7,25.9 269.4,25.7 274.6,25.1 
	277.1,24.2 277.7,24.2 "/>
<polyline class="st0" points="255.5,26.5 255.8,26.5 256.6,26.9 257.5,27.8 258.5,29.2 258.7,29.7 258.8,30.2 258.9,32 259.1,32.6 
	259.2,33.7 259.3,34.3 259.3,34.8 259.5,35.4 260,36.3 260.3,36.7 260.9,36.8 "/>
<polyline class="st0" points="253.4,27.5 254.1,27.5 254.7,27.1 255.1,26.7 255.5,26.5 "/>
<polyline class="st0" points="173.2,27.6 175.5,28.6 180.3,33.1 181,33.3 182,33.4 "/>
<polyline class="st0" points="161.5,38.1 162,38.1 162.5,37.6 163.7,36.4 164.6,35.7 165.9,35.1 166.4,34.7 166.7,34.2 168.1,31.5 
	168.7,30.6 169.8,29.4 172,27.9 172.6,27.7 173.2,27.6 "/>
<polyline class="st0" points="184.1,33 184.7,33.1 185.2,33.3 185.6,33.7 185.9,34.1 186.2,34.6 186.3,35.1 186.6,36.3 186.8,36.7 
	187.2,37 187.7,37 "/>
<polyline class="st0" points="182,33.4 183.5,33.1 184.1,33 "/>
<polyline class="st0" points="134.1,17.8 135.4,20.4 137,21.8 137.2,22.4 137.1,23.4 136.8,25.8 136.7,26.5 136.8,27.1 137.2,27.5 
	137.8,27.7 141.2,27.9 141.8,28.1 142.2,28.5 142.2,29.4 142,31 142,31.8 142.2,32.9 143.9,37.3 144.1,37.8 144.5,38.8 145.4,40.8 
	145.5,41.9 145.4,43.5 144.4,49.7 142.4,57.2 142,58.7 142.1,61.2 143.4,65.7 142.4,68.1 141.7,69.5 140.9,70.1 135.3,72.9 
	134.2,74 133.9,74.8 133.2,75.6 132.6,76 127.9,77.3 127.6,78 126.5,82.5 126.5,83 126.5,83.6 126.9,84 127.5,84.2 128.7,84.5 
	130.4,85.4 131.2,86 131.6,86.4 132.3,87.2 132.5,87.7 132.7,88.2 132.9,88.7 132.9,89.3 132.8,89.9 132.5,90.8 132.2,91.4 
	131.4,92.2 129.7,92.7 "/>
<polyline class="st0" points="129.7,92.7 121,91.4 120.2,91 119.6,90.6 119.3,90.2 119.1,89.7 118.9,89.2 118.8,88.6 119,88.1 
	119.5,87 119.6,86.6 119.6,86.1 119.1,85.8 118.3,85.7 "/>
<polyline class="st0" points="118.3,85.7 114.5,86.8 114,87 113.7,87.3 113.7,87.8 114.2,88.6 114.2,89 114,89.4 113.6,89.9 
	112.4,90.8 111.6,91.1 108,91.8 106.9,92.2 106.2,92.7 105.9,93.1 105.6,93.5 105.1,93.5 "/>
<polyline class="st0" points="105.1,93.5 104.6,93.1 104.4,92.5 104.3,91.8 104.5,90.5 103.5,89.8 101.6,89.2 92.3,87.7 "/>
<polyline class="st0" points="92.3,87.7 91.1,87.8 88.5,88.5 87.5,89.1 86.9,89.9 86.7,90.5 85,90.8 "/>
<line class="st0" x1="85" y1="90.8" x2="68" y2="88.9"/>
<polyline class="st0" points="68,88.9 66.2,90.5 65.9,90.9 61.3,97.8 58.2,103.9 56.7,104.1 "/>
<polyline class="st0" points="56.7,104.1 41.6,100.9 35,98.5 34.5,98.3 34.1,98.2 33.5,98.2 "/>
<polyline class="st0" points="33.5,98.2 32.9,98.2 32.5,98.6 32.3,99.2 32.3,100.3 32.4,101 32.7,101.7 33.7,103.5 35.5,106.2 
	36.3,106.8 36.8,107.1 40.4,108.2 40.8,108.5 40.9,109.1 40.5,109.7 39.5,110.3 38.8,110.5 38,110.5 "/>
<polyline class="st0" points="29.6,112.8 29.2,112.6 28,110.8 27.7,110.4 26.1,109.1 25.7,108.9 25.4,108.9 "/>
<polyline class="st0" points="25.4,108.9 25,109 24.5,109.1 23.7,109.7 23.4,110.3 23.3,111.2 23.7,112.8 24,113.7 24.3,114.4 
	24.5,114.8 24.9,115.4 25.5,116.1 25.9,116.5 26.4,116.8 27.6,117.1 29.6,117.4 30.1,117.6 30.4,118 30.5,118.4 30.1,118.9 
	28.4,120.2 28,120.5 27.7,120.9 27.4,121.4 27.1,122.5 26.9,124.2 26.8,130 26.2,130.4 22.9,131.9 "/>
<line class="st0" x1="38" y1="110.5" x2="31.9" y2="109.3"/>
<polyline class="st0" points="31.9,109.3 31.4,109.6 31,110.1 30.9,111.2 30.7,112 30.1,112.8 29.6,112.8 "/>
<polyline class="st0" points="16.9,134.5 16.4,134 16.1,133.5 14,129.8 13.6,129.3 12.9,129 "/>
<polyline class="st0" points="12.9,129 7.9,129.1 6.7,129.5 5.2,131.1 3.4,133.4 3.3,133.8 3.1,134.6 3.2,136.1 3.1,136.4 2.9,137 
	0.2,139.4 -0.4,140.3 -0.2,141.9 1,143.3 5.3,146.6 6.2,148.2 7,150 7.6,150.9 8.2,151.5 8.9,152.2 9.2,152.6 9.4,153.2 9.5,153.8 
	9.4,156.2 9.4,156.9 9.6,157.7 9.8,158.6 10.7,160.8 11.3,161.8 12.1,162.7 13.1,163.2 15.5,163.8 15.8,164.3 16,164.9 15.2,167 
	13.6,170.1 12.7,172.4 12.5,173.5 13.2,175 14.8,176.7 17.1,179.8 17.3,179.9 17.6,180 "/>
<polyline class="st0" points="22.9,131.9 22.6,131.9 22.1,131.8 21.1,131 20.6,130.6 20,130.6 "/>
<polyline class="st0" points="20,130.6 18.5,131.1 18,131.4 17.8,131.8 17.6,132.3 17.4,132.9 17.3,134.1 17.2,134.4 16.9,134.5 "/>
<polyline class="st0" points="25.1,172.7 25.6,172.8 26,173 26,173.7 25.9,174.3 23.2,179.7 23.1,180.1 23.1,180.5 23.2,180.8 
	23.6,181.3 25.5,182.6 27.7,182.8 "/>
<polyline class="st0" points="17.6,180 18.1,179.7 18.2,179.6 19.6,174.7 19.8,174.2 20.1,173.7 20.5,173.5 25.1,172.7 "/>
<polyline class="st0" points="36,181.9 38.8,185 40.5,188.1 40.3,192.2 39.7,193.7 38.9,195.1 37.1,197.4 30.7,202.6 "/>
<polyline class="st0" points="27.7,182.8 35.3,182 36,181.9 "/>
<path class="st0" d="M289.4,33"/>
<polyline class="st0" points="289.4,33 288.8,35.1 288.4,36.6 288.3,37.3 288.2,38 287.9,38.5 287.3,38.9 286.9,39 "/>
<polyline class="st0" points="286.9,39 286.3,38.9 284.5,38.4 281.8,38 "/>
<polyline class="st0" points="281.8,38 279.4,38.2 277.3,39 276.8,39 "/>
<polyline class="st0" points="276.8,39 276.1,39 273.7,38.3 "/>
<polyline class="st0" points="273.7,38.3 273.1,38.3 272.5,38.4 271.6,39 270.4,40 268.5,41 268.2,41.5 268.3,42.1 269.1,43.2 
	269.9,43.7 275.2,46.1 275.6,46.5 276,47 276.7,48.2 277.2,49.4 277.4,50.2 277.7,52 277.7,52.6 277.6,53.3 276.8,54.9 274.5,56 
	273.8,56.2 272.5,56.8 272.1,57.2 271.8,57.6 271.8,58.1 271.8,58.7 272,59.8 272.2,60.4 272.5,60.9 273.1,61.3 273.7,61.4 "/>
<polyline class="st0" points="278.5,59.5 279.8,59.6 280.4,59.9 280.9,60.2 281.2,60.6 281.5,61 282.6,63.4 283,63.8 283.4,64.2 
	285.4,65.3 285.7,65.8 285.9,66.5 286,67.3 285.8,68.1 285.3,68.8 282.8,70.9 281.3,72.4 279.3,75.2 279.1,75.7 279,76.4 
	279.2,77.3 279.9,78.1 280.2,78.4 280.7,78.8 281.2,79.6 281.4,81.4 279.3,86.2 277.6,92.1 277,95.6 276.8,96.4 276.4,97.2 
	273.9,101.1 273.6,101.8 273.2,102.6 271.8,107.3 271.7,107.7 271.7,108.1 271.8,108.5 271.8,109.1 271.7,109.8 271.4,110.6 
	270.8,111.4 270.3,111.8 269.8,112.2 269.6,112.4 269.2,113.1 268.7,114.3 268.1,116.2 267.6,118.3 267.5,119 267.3,119.8 
	266.9,120.5 266.2,121.2 265.6,121.5 264.9,121.6 "/>
<polyline class="st0" points="273.7,61.4 274.3,61.3 278.5,59.5 "/>
<line class="st0" x1="264.9" y1="121.6" x2="262.4" y2="121.6"/>
<polyline class="st0" points="262.4,121.6 261.8,122 261.2,122.6 260.8,124.4 260.4,125.5 260.3,126.3 260.4,126.8 260.8,127.5 
	261.2,127.9 261.3,130.7 263.4,132.1 263.8,132.8 264.1,134 264.6,136.4 265,137.4 265.6,138.1 267,139 267.4,139.5 267.5,140.2 
	267.4,141.4 266.3,145.7 265.8,147 264.4,148.4 264.4,149.2 264.4,149.6 265.5,151.2 265.7,152.3 265.6,152.8 265.5,153.5 
	265.2,154.2 264.6,155 263.6,155.8 263.3,156.4 263.3,157.2 263.3,157.9 263.5,159.1 263.7,160.2 263.7,160.8 263.5,161.4 
	262.9,162.1 262.3,162.5 259.7,163.5 259.3,163.8 259.1,164.3 259.1,165.1 259.3,165.6 259.7,166 260.3,166.2 263.6,166.6 
	264.8,166.9 265.1,167.3 265.3,167.7 265.4,168.3 265.4,168.9 265.1,169.5 264.3,170.1 263.6,170.3 260.2,170.9 259.7,171.2 
	259.4,171.7 259.2,172.6 259.1,173.4 259.4,178.2 259.4,178.8 259.2,179.7 258.7,180.4 257.4,181.3 256.9,181.5 254.2,182.2 
	253.7,182.7 251.8,184.7 251.1,185.3 250.4,185.7 249.5,185.8 247.8,186.5 247,187.1 246.7,187.4 244.2,191.7 243.3,192.6 
	242.5,193 "/>
<line class="st0" x1="242.5" y1="193" x2="239.8" y2="192.6"/>
<polyline class="st0" points="239.8,192.6 239.2,192.6 238.6,192.8 238.2,193.3 237.9,194.2 237.7,194.9 237.4,196.4 237.4,197.1 
	237.6,197.8 238.1,198.7 238.6,199.2 240.8,200.3 241,201 241,202.3 240.4,204.7 239.8,208.7 239.8,209.4 239.7,210.6 239.2,212.6 
	238.7,213.7 238.5,214.3 238.2,214.7 237.7,215 237.1,215.2 234,215.9 "/>
<polyline class="st0" points="234,215.9 233.4,215.7 232.6,215.3 230.2,212.7 228.7,212.2 "/>
<polyline class="st0" points="228.7,212.2 227.1,212.7 226.7,212.9 226.4,213.4 226.1,214 226,215.1 225.8,215.9 225.4,216.6 
	224.6,217.6 224.5,218.1 224.6,218.9 225,219.9 225.9,221.8 226.7,223.1 226.9,223.6 226.7,224.1 226.2,224.5 225.7,224.7 "/>
<polyline class="st0" points="225.7,224.7 225.1,224.6 224.6,224.3 223.6,223.6 223.2,223.4 "/>
<polyline class="st0" points="223.2,223.4 222.7,223.4 222.3,223.8 222.1,224.6 222,226 222,228.9 222.2,230 222.4,230.5 222.6,231 
	222.9,231.4 223.3,231.8 225.2,232.9 225.6,233.2 226.3,234 226.6,234.4 227.1,235.3 227.5,236.2 227.8,237.2 227.7,237.8 
	227.3,238.5 226.4,239.1 222.4,240.3 222,240.6 221.7,241 221.7,241.7 221.8,242.3 222.1,243.3 222.2,243.8 222.3,244.4 222,245.1 
	221.3,245.8 218.4,247.3 218.2,248.4 218.5,250 218.5,252 218,256.9 218.6,257.9 219.2,258.3 220.1,258.8 220.6,259.1 220.8,260 
	220.9,260.8 219.9,266 218.5,272.7 217.5,274.1 215.6,275.9 201.4,287.3 200,289.3 199.4,289.9 195,291.4 194.5,291.7 194,292.2 
	192.5,294.7 192.1,295.1 185.9,298.5 177.6,307.9 "/>
<polyline class="st0" points="19,199.5 24.9,199.9 26.6,200.5 30.7,202.6 "/>
<polyline class="st0" points="14.3,201.4 16.1,201 18.5,199.7 19,199.5 "/>
<path class="st0" d="M14.3,201.4"/>
<polyline class="st0" points="30.7,202.6 29.7,203.6 28.6,205.9 28.4,206.7 28.1,208.1 27.9,208.5 27.5,209.2 26,210.5 25.7,211.6 
	25.2,214.2 25.5,214.7 25.8,214.9 26.5,214.9 "/>
<polyline class="st0" points="33.9,212.5 36.1,212.9 37.7,213.8 40.6,216.6 42.1,217.1 "/>
<polyline class="st0" points="26.5,214.9 27.2,214.8 33.2,212.5 33.9,212.5 "/>
<polyline class="st0" points="46.1,216.5 46.7,216.7 47.2,217.3 48,219.6 49.1,224.7 49.3,225.2 49.6,225.6 50.1,225.9 54.7,226.2 
	55.5,227 56.4,229 57.7,233.4 59.3,241 "/>
<line class="st0" x1="42.1" y1="217.1" x2="46.1" y2="216.5"/>
<polyline class="st0" points="80.6,230.9 84.3,232.4 87.8,235 88.2,235.4 88.4,236 88.6,237 88.5,237.7 88.3,238.3 86.8,240.5 
	86.5,241 86.3,241.5 86.1,242.1 86.2,242.6 86.3,243.1 86.7,243.5 87.5,243.6 "/>
<polyline class="st0" points="76.2,233.2 77.1,232.8 77.6,232.5 78.2,231.8 78.7,231.2 79.1,231 80.6,230.9 "/>
<line class="st0" x1="71.6" y1="232.5" x2="76.2" y2="233.2"/>
<polyline class="st0" points="68.8,233.2 70.7,232.6 71.6,232.5 "/>
<line class="st0" x1="65.2" y1="232.8" x2="68.8" y2="233.2"/>
<polyline class="st0" points="59.3,241 61.3,239.3 61.7,238 61.7,237.4 61.7,236.7 61.8,235.5 61.9,234.8 62.1,234.3 62.9,233.7 
	63.4,233.4 63.8,233.1 64.4,232.9 65.2,232.8 "/>
<polyline class="st0" points="91.6,241.4 92.2,241.6 92.8,242 93.6,243 93.9,243.7 94,244.4 94,245 94.1,245.6 94.2,246.1 
	95.2,247.3 95.4,247.7 95.6,248.3 95.9,248.8 96.3,249.2 97.2,249.5 97.7,249.6 "/>
<polyline class="st0" points="87.5,243.6 88.1,243.5 88.6,243.3 89,243 90.2,242 90.6,241.7 91.1,241.5 91.6,241.4 "/>
<polyline class="st0" points="102.1,242 103,242.4 104,243.3 105.8,245.6 106.4,246.9 106.5,247.8 106.2,248.3 105.5,249 
	105.2,249.4 105.3,250 105.7,250.8 106.7,252.4 107.2,253.3 107.3,254.1 107,255.3 107.2,255.9 107.5,256.3 108.4,256.5 "/>
<polyline class="st0" points="97.7,249.6 98.1,249.5 98.5,249.2 98.8,248.8 99.1,248.3 99.2,247.7 99.3,247 99.3,246.4 99.2,245.8 
	98.8,244.3 98.7,243.7 98.8,243.2 99,242.7 99.4,242.4 99.9,242.2 102.1,242 "/>
<polyline class="st0" points="110.6,253.4 112.3,254.9 117.4,263.5 127.8,264.4 "/>
<polyline class="st0" points="108.4,256.5 108.9,256.3 109.3,255.9 110.3,253.9 110.6,253.4 "/>
<polyline class="st0" points="129.2,262.4 129.6,262.5 130.4,262.9 131.5,264 132,264.8 132.3,265.5 132.4,266 132.8,266.5 
	133.5,267 138,267.9 143.2,270 143.2,270.7 143,271.7 142.8,272.3 142.6,272.7 142.2,272.9 140.6,273.2 140.3,273.5 140.1,274 
	140,274.6 140,277.1 140,277.7 139.9,278.4 139.4,280.1 139.5,280.5 139.8,280.9 140.5,280.9 "/>
<polyline class="st0" points="127.8,264.4 128.3,264.3 128.5,264 128.6,263.5 128.7,263 128.9,262.6 129.2,262.4 "/>
<polyline class="st0" points="149.6,277.3 150.1,277.4 150.6,277.7 150.9,278.3 151.1,278.9 151.2,280.1 151.4,281.1 151.6,281.8 
	152,282.2 152.6,282.7 153.8,283.4 154.6,283.6 161.9,284.2 162.5,284.5 163.1,285 163.6,286.1 164,286.7 164.5,287 167.6,287.1 
	170.3,287.6 171,288 171.7,288.5 172.8,289.8 173.5,290.2 174.2,290.5 174.8,290.6 175.2,291.2 175.4,292.1 175.4,293.8 
	175.3,294.9 175.2,295.7 174.6,298.2 174.4,299.6 174.4,300.2 174.4,301.4 174.5,302.1 174.7,302.8 175,303.7 175.3,304.4 
	176.1,305.4 177.6,307.9 "/>
<polyline class="st0" points="147.5,281 148,281 148.1,280.6 148.3,278.8 148.5,278.2 148.7,277.8 149.1,277.4 149.6,277.3 "/>
<polyline class="st0" points="143.3,279.5 144.1,279.7 146.7,280.8 147.5,281 "/>
<polyline class="st0" points="140.5,280.9 141.1,280.8 141.6,280.6 142.5,279.8 142.9,279.6 143.3,279.5 "/>
<polyline class="st1" points="251.7,186 248.4,183.1 247.5,181.5 247.1,180.2 246.6,179.4 245.6,179.4 241.1,181.3 239.3,181.1 
	235.1,178.9 232,177.6 229.4,175.8 227.3,175.4 224.7,175.6 222.2,176 219.5,176 213.8,174.5 205.6,175.3 203,175.8 201.3,177.1 
	199.9,178.6 195.8,180.8 189.9,186.6 187.8,188.1 186.4,188.1 184.4,186.6 183.3,186.4 182.3,185.8 181,182.5 179,179.3 178,176.6 
	177.4,176 177,175.1 177,173 176.7,170.8 175.3,169.5 173.4,168.2 170.2,164.2 166.7,160.7 164.8,157.1 163.8,156.2 162.2,156.3 
	157.5,158.1 156.9,158.2 155,158.7 152.9,158.8 150.4,158.3 149.2,159.6 146.7,161.1 145.6,162.3 144.5,163.2 143.1,163.2 
	141.6,162.7 134.4,162.2 131.7,161.1 "/>
<polyline class="st1" points="281.3,61.4 279.9,61.6 277.1,61.5 273,63 270,63.5 267.4,63.4 265.9,62.6 265.2,61.8 264.3,61.3 
	263.1,61.3 261.5,61.6 260.1,62.3 258.8,63.9 257.3,64.9 255.3,65.5 251.6,65.2 247.9,65.4 246.8,63.5 245.6,63.5 244,63.8 
	242.4,63.6 241,62.9 238.4,61.1 236.1,60.8 234.4,60.1 232,59.5 228.8,59.7 225.3,61.1 217.7,66.3 216.9,67.2 216,69.1 214.7,71 
	213.2,72 210.9,73 208,75.1 205.4,77.5 204.1,79.3 203.2,80.1 200.2,79.8 198.8,80.5 196.5,80.2 194.9,81.5 193.2,82.2 191.9,83 
	192.1,84.2 192.6,85.4 192.5,86.2 185.6,88.6 182.8,90 180.8,91.7 179,94.7 176.9,96.2 174.6,99.6 172.5,101.4 171.5,103.1 
	170.9,105 171.2,106.5 171.2,108.1 170.2,110.1 168.3,112.2 164.8,115.2 164.1,116.2 163.3,116.8 159.9,117.6 156.5,119.9 
	154.2,120.7 153.3,122.1 152.8,124.2 152.9,126 152.2,127.9 149.9,130 147.3,131.8 145.7,133.2 144.5,133.9 140.5,133.8 
	138.3,134.9 136.1,135.5 "/>
<polyline class="st1" points="175.3,298.9 175.2,297.7 175.4,296.8 177,295.7 178.2,294.3 179.3,292.5 180.7,288.8 183.6,283.5 
	184.6,280.3 184.8,277.3 184.3,275 183.7,273.2 183.2,269 182.3,266 180.8,262.8 178,258.1 177.5,256.8 176.9,256 173.8,254.5 
	172.4,252.5 168.4,248.9 166.1,245.6 164.2,244.3 161.6,241 159.5,239.3 157.1,238.1 155.1,237.4 153.7,237.4 152,238.1 
	150.5,238.2 147.4,237.5 145.4,237.5 138.9,238.5 134.9,237.6 132.8,238 131,239.1 129.9,240.3 129.2,241.5 127.2,243.3 125,246.3 
	123.1,247.5 121.5,249.8 120.4,251 119.1,251.6 116.3,251.3 115.1,251.3 114.2,251.9 113.6,252.9 113.3,253.9 113.5,254.8 
	112.9,256.2 110.5,258.7 107.4,260.9 "/>
<polyline class="st1" points="253.3,45.6 254.3,44.6 255,43.5 255.4,42.2 254.6,40.9 250.4,38.1 248.7,36 246.2,31.2 244.7,29.6 
	243.3,28.8 242,28.4 240.6,27.6 239.3,26 236.6,21.4 235.5,20 234.1,17.8 230.5,8.9 228.8,5.7 227.2,4 223.8,2.1 222,0.5 220.9,0 
	219.1,0 216.7,0.5 214.2,1.5 210.6,3.6 206.7,5 204.5,6.3 202.4,8.2 200.7,10.2 199.8,12 199.6,13 199.2,13.7 198,14.4 196.2,14.9 
	194.5,15.1 193.1,14.9 191,13.8 189.3,13.6 187.4,13 185.8,11.7 183.4,11 179.6,12.2 175.7,13.8 173.2,14.4 171.6,14.4 167.9,15 
	163.6,14.5 161.8,14.7 160.5,15.4 158.1,17.4 152.2,20 151.4,20.9 151.2,21.8 150.5,23 148.8,24.4 146.3,25.8 143.9,26.9 
	142.5,27.9 142,29.2 142.1,30.9 141.8,32.7 140.7,34.5 138.9,36.4 136.9,37.8 135.4,38.6 134.5,38.5 134,37.8 133.2,37.2 
	131.4,37.4 129.4,38.3 "/>
<polyline class="st1" points="280.6,111.6 276.1,110.2 271.4,110 266.1,108.5 262.9,108.1 261.2,107.5 259.3,108.9 256.9,109.9 
	254.2,110.5 250.6,110.3 249.6,110.7 248.6,111.6 247,112.5 245.6,112.9 244.2,112.1 243,112.1 241.8,112.8 241.1,113.9 
	240.6,115.2 239.8,116.4 238.5,117.2 234.7,117.7 232.2,118.7 230.1,120 228.7,121.3 228.1,122.6 227.6,125.4 226.8,126.6 
	225.7,127.4 223.7,128.3 223.3,129.4 222.6,130.8 220.8,132.2 218.4,133.3 216.2,133.7 214.1,134.7 212.3,136.9 210.9,139.9 
	210,142.4 209.1,143.8 205.8,144 202.3,147.3 201,147.4 199.8,146.8 198,146.7 196.1,147.2 192.9,149 190.4,149.8 187.9,149.8 
	186,148.9 184.7,148 182,148.4 177.7,147.9 175,148.1 172.8,148.9 171.4,150 170.7,151 170.1,151.3 166.6,151.8 164.5,152.4 
	162.6,153.6 160.5,154.5 158.3,155.7 157.2,157 156.9,158.2 156.9,158.5 "/>
<polyline class="st1" points="228.6,34.2 227.6,33.1 226.3,32.1 224.7,31.2 222.7,31.1 220.7,31.7 219,33.2 216.1,36.8 210.5,41.2 
	208.3,42.2 205.4,42.6 202.7,42.4 200.8,41.7 199.1,39.4 196.6,35.4 193.4,31.7 190.1,30.3 187.7,30.2 186.7,29.7 186,29 
	184.6,28.5 182.7,28.7 181,29.8 179.6,31.1 178.2,31.7 175.7,33.5 171.5,37.4 167.5,42.1 165.5,45.7 164.6,48.2 163.3,50.2 
	161.9,51.4 159.3,52.5 158.6,53.8 157.7,55.5 155.3,59.1 154.5,61.3 154.2,64.3 154.2,68 153.9,71.3 152.5,74.7 152.7,77.3 
	151.1,78.8 149.5,83.2 148.1,85.5 148.3,86.6 148.7,88.1 148.9,89.9 148.7,91.7 147.7,94.6 147.4,96.6 147.3,98.8 147.5,100.6 
	147.4,102.3 145.6,105.8 145.5,106.7 145.8,108 145.9,110.2 146.2,112.8 147.2,114.8 148.1,116.3 148.4,117.6 148.4,118.9 
	148.7,120.3 149.3,121.4 150.8,122.2 151.6,123 152.4,124.3 "/>
<polyline class="st1" points="217.3,246.5 216.5,245.7 215.1,244.8 209.7,242.6 206.2,240.9 203.4,239.1 201.6,237.5 199.9,235.2 
	197,231.8 192.1,226.9 190.7,226.4 186.8,226 184.7,225.2 183,223.9 181.7,222.3 180.9,220 180.1,217 178.9,213.7 177.3,210.6 
	175.4,208.3 172.5,205.7 171,203.5 169.4,201.6 167.5,200.1 166.1,199.7 165,199.8 162.6,198.8 159.9,198.7 157.7,198.4 
	155.3,197.4 149,192.3 146.1,191 143,190.6 140.5,190.7 137.8,190.2 135.5,190.8 133.6,189.1 132,188.2 130.2,187.8 128.7,187.7 
	127.5,188.3 126.4,189.2 125,189.8 121.1,189.5 119,190.4 116.8,189.9 115.9,190.4 115,191.4 113.7,192.4 112.2,192.7 110.7,192.2 
	109.4,191.5 108.1,191.2 107.4,190.5 107.1,185.6 106.6,182.8 105.5,180.7 102.4,178.1 101.2,175.4 100.2,172.8 99.4,171.9 
	98.4,171.4 96.9,170.2 95.6,168.3 94.9,165.8 "/>
<polyline class="st1" points="7.7,162.9 10.9,163 20.2,164.4 23.3,164.6 26.2,164.3 28.4,163.7 30.6,163.7 33,164.7 "/>
<polyline class="st1" points="288.6,36.9 288.5,35.8 288,34.8 284.9,32.8 282.8,30.7 281.1,27.9 278.9,22.1 276.5,18.9 273.6,17 
	270.8,17.3 268.4,18.3 266.1,18 264.2,17.4 262.3,17.4 260.8,18 259.3,19.3 258.5,19.4 257.6,18.9 256.9,17.9 256.7,16.3 
	256.9,14.4 256.9,12.8 255,10.4 "/>
<path class="st1" d="M63.5,84.3"/>
<polyline class="st1" points="33,164.7 33.1,164.7 37,166.5 "/>
<polyline class="st2" points="63.5,84.3 65.5,88.9 65.9,93 65.9,99.3 65.2,108.8 65.2,115.5 67.7,122.2 70.5,127.6 72.2,128.6 
	76.2,129.9 82.7,130.9 99.7,130 115.2,131.2 118.6,131.2 121.2,131.5 123.2,131.5 "/>
<polyline class="st2" points="44.8,165.1 38.6,165.4 37.2,166.2 35.2,169.4 33.5,172.6 33,176.2 34.4,180.2 38.8,185 40.5,188.1 
	40.3,192.2 39.7,193.7 38.9,195.1 37.1,197.4 30.7,202.6 29.7,203.6 28.6,205.9 28.4,206.7 28.1,208.1 27.9,208.5 27.5,209.2 
	22.5,213.7 22,214.4 21.5,215.2 21.3,216.2 18.8,219 17.8,220.8 "/>
<polyline class="st2" points="123.2,131.5 125,131.5 128.5,130.1 130.3,129.7 132.2,130 133.2,130.3 134.1,130.9 134.8,131.8 
	135.3,133 136.1,135.5 137.6,137.9 138.6,140.3 138.9,141.2 139,142.3 138.9,144.7 139.1,145.8 139.4,146.7 140.1,148.1 140.3,149 
	140.3,150.9 139.9,152.7 139.1,154 138.2,154.9 134.9,156.3 133.2,157.6 132.5,159.7 131.7,161.1 129.8,161.7 127.7,161.7 
	126.5,161.4 120.5,156.8 118.7,155.9 116.9,155.8 113.5,157.1 105,163.1 96.6,165.6 94.9,165.8 93.2,165.3 92.1,164.1 90.6,160.8 
	87.9,157.2 84.4,155.9 69,154.9 67.3,155.3 54.1,162.4 49.6,163.2 44.8,165.1 "/>
<polyline class="st3" points="13.6,221.5 16.5,217.5 17.8,213.9 19.5,211.2 22.2,209.9 24.4,209 24.4,206.4 24.3,202.7 25.4,199.1 
	26.4,196.2 28.1,193.3 30.3,189.7 32.5,186.8 34.5,184.5 34.3,182.2 32.4,177.4 30.7,173.2 30.1,170.9 30.7,168.2 32,166.8 
	32.6,165.4 33.3,164.1 34.1,162.7 35.5,161.1 39.4,161.8 44.8,165.1 41.9,166.4 41.2,167.1 40.4,167.9 38.7,169.2 37.4,171.2 
	37.5,173.9 37.1,177.4 38.9,180.2 38.8,181.2 38.2,182.4 39.1,184 41.1,186.7 42.3,189.7 41.9,192 40.4,194.4 38.7,197.3 37,199.9 
	33.8,202.4 31.4,204 30.8,204.7 29.8,207.1 29,209.5 28.9,211.6 28,215.3 29.4,216.9 31.1,215.3 32.2,213.5 34.5,212.2 36.3,213 
	35.6,213.8 34.1,213.6 33.4,215.1 32.5,216.5 31.1,218.3 29.5,220.4 28.2,220.4 27,220.6 24.9,221.1 23.2,221.5 20.6,222.4 "/>
<polyline class="st4" points="13.6,221.5 16.5,217.5 17.8,213.9 19.5,211.2 22.2,209.9 24.4,209 24.4,206.4 24.3,202.7 25.4,199.1 
	26.4,196.2 28.1,193.3 30.3,189.7 32.5,186.8 34.5,184.5 34.3,182.2 32.4,177.4 30.7,173.2 30.1,170.9 30.7,168.2 32,166.8 
	32.6,165.4 33.3,164.1 34.1,162.7 35.5,161.1 39.4,161.8 44.8,165.1 41.9,166.4 41.2,167.1 40.4,167.9 38.7,169.2 37.4,171.2 
	37.5,173.9 37.1,177.4 38.9,180.2 38.8,181.2 38.2,182.4 39.1,184 41.1,186.7 42.3,189.7 41.9,192 40.4,194.4 38.7,197.3 37,199.9 
	33.8,202.4 31.4,204 30.8,204.7 29.8,207.1 29,209.5 28.9,211.6 28,215.3 29.4,216.9 31.1,215.3 32.2,213.5 34.5,212.2 36.3,213 
	35.6,213.8 34.1,213.6 33.4,215.1 32.5,216.5 31.1,218.3 29.5,220.4 28.2,220.4 27,220.6 24.9,221.1 23.2,221.5 20.6,222.4 "/>
<polyline class="st3" points="78.5,82.5 78.9,84.6 81.5,91 82.5,94.7 83.3,96.7 84.3,97.6 84.9,97 85.8,94.5 86.5,93.9 87.3,94.4 
	87.5,95.7 87.4,97.1 87.6,98.3 88.7,99.9 89.8,100.7 90.7,101.9 91,104.5 90.8,105.1 89.9,106.9 89.7,107.4 89.5,107.8 89.1,107.9 
	88.2,107.8 88,107.5 88,106.9 88.1,106.2 88.1,105.6 87.9,104.6 87.9,103.8 87.8,103 87.2,101.9 86.7,101.4 86,100.6 85.3,100.5 
	85,101.6 84.9,102.7 84.6,103.8 84.1,104.5 83.5,104.8 82.9,104.4 83,103.5 83.3,102.3 83.3,101.3 82.1,99.6 80.5,98.3 79.1,96.7 
	78.5,94.3 77.7,92 75.9,91.3 73.9,91.6 72.4,92.4 71.2,94.2 71,95.9 71.3,97.7 71.6,100.1 71.4,102.6 71.1,104.6 69.9,108.6 
	68.9,113.3 68.8,117.7 69.6,121.5 71.6,124.6 74.7,126.6 97.5,128.1 120.4,129.6 121.8,130.2 124.2,132.4 125.6,133.3 94.9,132.5 
	90.2,135.1 85.4,136 84,136.9 82.8,138.3 82.1,140.2 81.6,142.9 81.6,145.3 82.6,146.3 82.8,146.8 82.5,147.8 81.9,148.8 
	81.3,149.3 80.6,149.4 78.5,150.7 76.2,150.8 71.8,149.7 59.5,151.4 54.1,150.7 51.3,147.1 44.4,141.3 44.4,140.6 47.4,141.1 
	50.3,143.2 55.6,148.5 57.1,149.6 59.1,150.4 61.1,150.6 63.3,149.1 64.3,148.8 67.7,148.4 69.4,147.8 75.9,148.3 77.4,147.5 
	77.7,147.1 78,147.1 78.7,147.1 79.1,146.9 79.3,146.4 79.4,145.8 79.6,145.2 79.8,144.3 79.3,143.7 78.6,143.2 78.1,142.6 
	77.9,141.1 78.3,140.9 79,141 79.8,140.6 80.1,139.9 80.6,138.6 80.7,137.4 80,136.9 78.3,136.2 77.4,136 76.6,136.5 76.2,136.7 
	74.6,136.2 74,136.4 73.7,136.8 73.4,137.3 72.9,137.7 71.2,137.7 70.4,136.6 69.8,135.3 68.6,134.7 66.7,134.5 64.9,134 
	63.2,133.2 61.6,131.9 66.1,132.5 68.2,131.9 69,129.3 68.2,127 66.5,125 60.9,119.8 59.2,118.9 58.7,117.6 58.4,116 57.2,112.7 
	56.6,109.5 56.6,106.5 57.3,104.8 57.1,100.7 57.5,99.3 58.6,97.6 59.7,96.4 60.1,95.6 60.3,94.6 59.2,92.8 58.9,91.6 59.9,91 
	61.2,91.7 61.8,91.7 62.1,90.6 62,89.2 61.8,88.2 "/>
<polyline class="st4" points="78.5,82.5 78.9,84.6 81.5,91 82.5,94.7 83.3,96.7 84.3,97.6 84.9,97 85.8,94.5 86.5,93.9 87.3,94.4 
	87.5,95.7 87.4,97.1 87.6,98.3 88.7,99.9 89.8,100.7 90.7,101.9 91,104.5 90.8,105.1 89.9,106.9 89.7,107.4 89.5,107.8 89.1,107.9 
	88.2,107.8 88,107.5 88,106.9 88.1,106.2 88.1,105.6 87.9,104.6 87.9,103.8 87.8,103 87.2,101.9 86.7,101.4 86,100.6 85.3,100.5 
	85,101.6 84.9,102.7 84.6,103.8 84.1,104.5 83.5,104.8 82.9,104.4 83,103.5 83.3,102.3 83.3,101.3 82.1,99.6 80.5,98.3 79.1,96.7 
	78.5,94.3 77.7,92 75.9,91.3 73.9,91.6 72.4,92.4 71.2,94.2 71,95.9 71.3,97.7 71.6,100.1 71.4,102.6 71.1,104.6 69.9,108.6 
	68.9,113.3 68.8,117.7 69.6,121.5 71.6,124.6 74.7,126.6 97.5,128.1 120.4,129.6 121.8,130.2 124.2,132.4 125.6,133.3 94.9,132.5 
	90.2,135.1 85.4,136 84,136.9 82.8,138.3 82.1,140.2 81.6,142.9 81.6,145.3 82.6,146.3 82.8,146.8 82.5,147.8 81.9,148.8 
	81.3,149.3 80.6,149.4 78.5,150.7 76.2,150.8 71.8,149.7 59.5,151.4 54.1,150.7 51.3,147.1 44.4,141.3 44.4,140.6 47.4,141.1 
	50.3,143.2 55.6,148.5 57.1,149.6 59.1,150.4 61.1,150.6 63.3,149.1 64.3,148.8 67.7,148.4 69.4,147.8 75.9,148.3 77.4,147.5 
	77.7,147.1 78,147.1 78.7,147.1 79.1,146.9 79.3,146.4 79.4,145.8 79.6,145.2 79.8,144.3 79.3,143.7 78.6,143.2 78.1,142.6 
	77.9,141.1 78.3,140.9 79,141 79.8,140.6 80.1,139.9 80.6,138.6 80.7,137.4 80,136.9 78.3,136.2 77.4,136 76.6,136.5 76.2,136.7 
	74.6,136.2 74,136.4 73.7,136.8 73.4,137.3 72.9,137.7 71.2,137.7 70.4,136.6 69.8,135.3 68.6,134.7 66.7,134.5 64.9,134 
	63.2,133.2 61.6,131.9 66.1,132.5 68.2,131.9 69,129.3 68.2,127 66.5,125 60.9,119.8 59.2,118.9 58.7,117.6 58.4,116 57.2,112.7 
	56.6,109.5 56.6,106.5 57.3,104.8 57.1,100.7 57.5,99.3 58.6,97.6 59.7,96.4 60.1,95.6 60.3,94.6 59.2,92.8 58.9,91.6 59.9,91 
	61.2,91.7 61.8,91.7 62.1,90.6 62,89.2 61.8,88.2 "/>
</svg>
